<?xml version="1.0" encoding="us-ascii" standalone="no"?><svg xmlns="http://www.w3.org/2000/svg" xmlns:xlink="http://www.w3.org/1999/xlink" contentStyleType="text/css" height="691px" preserveAspectRatio="none" style="width:1802px;height:691px;background:#FFFFFF;" version="1.1" viewBox="0 0 1802 691" width="1802px" zoomAndPan="magnify"><defs/><g><!--cluster Car Sharing Orchestration--><g id="cluster_Car Sharing Orchestration"><path d="M8.5,6 L222.5,6 A3.75,3.75 0 0 1 225,8.5 L232,28.2969 L1792.5,28.2969 A2.5,2.5 0 0 1 1795,30.7969 L1795,681.5 A2.5,2.5 0 0 1 1792.5,684 L8.5,684 A2.5,2.5 0 0 1 6,681.5 L6,8.5 A2.5,2.5 0 0 1 8.5,6 " fill="none" style="stroke:#000000;stroke-width:1.5;"/><line style="stroke:#000000;stroke-width:1.5;" x1="6" x2="232" y1="28.2969" y2="28.2969"/><text fill="#000000" font-family="sans-serif" font-size="14" font-weight="bold" lengthAdjust="spacing" textLength="213" x="10" y="20.9951">Car Sharing Orchestration</text></g><!--cluster Omni-Channels--><g id="cluster_Omni-Channels"><rect fill="none" height="97" rx="2.5" ry="2.5" style="stroke:#181818;stroke-width:1.0;" width="522" x="807" y="49"/><path d="M938,49 L938,58.2969 L928,68.2969 L807,68.2969 " fill="none" style="stroke:#181818;stroke-width:1.0;"/><text fill="#000000" font-family="sans-serif" font-size="14" font-weight="bold" lengthAdjust="spacing" textLength="121" x="810" y="62.9951">Omni-Channels</text></g><!--cluster Gateway--><g id="cluster_Gateway"><path d="M870.5,170 L942.5,170 A3.75,3.75 0 0 1 945,172.5 L952,192.2969 L1082.5,192.2969 A2.5,2.5 0 0 1 1085,194.7969 L1085,264.5 A2.5,2.5 0 0 1 1082.5,267 L870.5,267 A2.5,2.5 0 0 1 868,264.5 L868,172.5 A2.5,2.5 0 0 1 870.5,170 " fill="none" style="stroke:#000000;stroke-width:1.5;"/><line style="stroke:#000000;stroke-width:1.5;" x1="868" x2="952" y1="192.2969" y2="192.2969"/><text fill="#000000" font-family="sans-serif" font-size="14" font-weight="bold" lengthAdjust="spacing" textLength="71" x="872" y="184.9951">Gateway</text></g><!--cluster Text Classification--><g id="cluster_Text Classification"><path d="M676.5,170 L831.5,170 A3.75,3.75 0 0 1 834,172.5 L841,192.2969 L841.5,192.2969 A2.5,2.5 0 0 1 844,194.7969 L844,264.5 A2.5,2.5 0 0 1 841.5,267 L676.5,267 A2.5,2.5 0 0 1 674,264.5 L674,172.5 A2.5,2.5 0 0 1 676.5,170 " fill="none" style="stroke:#000000;stroke-width:1.5;"/><line style="stroke:#000000;stroke-width:1.5;" x1="674" x2="841" y1="192.2969" y2="192.2969"/><text fill="#000000" font-family="sans-serif" font-size="14" font-weight="bold" lengthAdjust="spacing" textLength="154" x="678" y="184.9951">Text Classification</text></g><!--cluster Repository--><g id="cluster_Repository"><path d="M301,301 C301,291 361,291 361,291 C361,291 421,291 421,301 L421,393 C421,403 361,403 361,403 C361,403 301,403 301,393 L301,301 " fill="none" style="stroke:#181818;stroke-width:1.0;"/><path d="M301,301 C301,311 361,311 361,311 C361,311 421,311 421,301 " fill="none" style="stroke:#181818;stroke-width:1.0;"/><text fill="#000000" font-family="sans-serif" font-size="14" font-weight="bold" lengthAdjust="spacing" textLength="88" x="317" y="325.9951">Repository</text></g><!--cluster Publisher--><g id="cluster_Publisher"><path d="M32.5,306 L108.5,306 A3.75,3.75 0 0 1 111,308.5 L118,328.2969 L274.5,328.2969 A2.5,2.5 0 0 1 277,330.7969 L277,400.5 A2.5,2.5 0 0 1 274.5,403 L32.5,403 A2.5,2.5 0 0 1 30,400.5 L30,308.5 A2.5,2.5 0 0 1 32.5,306 " fill="none" style="stroke:#000000;stroke-width:1.5;"/><line style="stroke:#000000;stroke-width:1.5;" x1="30" x2="118" y1="328.2969" y2="328.2969"/><text fill="#000000" font-family="sans-serif" font-size="14" font-weight="bold" lengthAdjust="spacing" textLength="75" x="34" y="320.9951">Publisher</text></g><g id="cluster_##25"><path d="M38.9026,455.4955 C41.2852,449.9053 46.1349,448.1808 50.1249,453.9005 C53.3523,447.8524 58.9855,447.8398 62.1564,453.9564 C64.722,448.1136 68.0952,447.2676 72.9237,451.55 C76.3188,445.7399 79.7925,444.6404 84.4175,450.3196 C87.6917,445.3824 91.0698,444.7417 95.2155,449.3317 C99.3169,444.4381 102.971,444.3332 106.7693,449.6737 C109.7476,445.2194 113.6463,444.5386 116.4206,449.8748 C120.436,443.2593 125.6754,444.5887 129.2603,450.3223 C133.6473,445.9438 136.4635,447.1918 138.7472,452.4031 C143.5758,446.9789 147.135,448.5307 150.5047,453.9805 C154.112,447.6676 157.8366,448.6118 162.2981,453.0428 C166.604,449.0253 171.6207,450.4628 173.3467,456.0198 C181.1325,458.4191 184.3162,465.1021 177.423,471.3935 C185.7504,475.1652 187.5743,479.7064 180.3915,486.5215 C187.2808,492.5375 184.2831,498.8617 176.9317,501.6129 C183.2998,508.0314 181.0585,512.6727 173.7428,516.0736 C172.5153,522.7251 167.3554,524.7648 162.4802,519.5298 C158.9645,525.0154 155.4864,525.3211 151.1626,520.4096 C148.643,526.4588 143.1461,526.8201 139.1345,522.0717 C135.5947,527.2014 131.3031,527.9563 127.6608,522.1795 C125.899,528.057 121.3065,528.7986 117.0997,524.7919 C115.0165,531.067 109.6042,531.7161 105.399,527.0641 C102.1515,530.6147 97.3228,530.0502 95.9216,525.024 C91.2806,531.5234 85.7243,530.0995 83.1057,523.1035 C79.3209,527.009 75.1509,526.7326 73.046,521.2948 C69.4418,526.7707 64.6149,527.1925 61.4817,520.8346 C57.0798,525.175 52.2621,525.1681 49.7482,518.7714 C45.9401,522.1873 41.0644,521.0894 39.4459,516.0906 C31.628,513.3111 28.8751,507.8725 34.2823,500.6658 C27.0598,498.126 24.7917,492.5847 30.778,486.7246 C24.5535,479.5638 25.9438,472.5259 35.3681,469.5465 C29.1098,463.9381 30.4055,457.3922 38.9026,455.4955 " fill="none" style="stroke:#181818;stroke-width:1.0;"/></g><!--cluster Shared Repository--><g id="cluster_Shared Repository"><path d="M428,558 C428,548 510.5,548 510.5,548 C510.5,548 593,548 593,558 L593,650 C593,660 510.5,660 510.5,660 C510.5,660 428,660 428,650 L428,558 " fill="none" style="stroke:#181818;stroke-width:1.0;"/><path d="M428,558 C428,568 510.5,568 510.5,568 C510.5,568 593,568 593,558 " fill="none" style="stroke:#181818;stroke-width:1.0;"/><text fill="#000000" font-family="sans-serif" font-size="14" font-weight="bold" lengthAdjust="spacing" textLength="149" x="436" y="582.9951">Shared Repository</text></g><!--cluster Location Services--><g id="cluster_Location Services"><path d="M447.5,306 L591.5,306 A3.75,3.75 0 0 1 594,308.5 L601,328.2969 L909.5,328.2969 A2.5,2.5 0 0 1 912,330.7969 L912,400.5 A2.5,2.5 0 0 1 909.5,403 L447.5,403 A2.5,2.5 0 0 1 445,400.5 L445,308.5 A2.5,2.5 0 0 1 447.5,306 " fill="none" style="stroke:#000000;stroke-width:1.5;"/><line style="stroke:#000000;stroke-width:1.5;" x1="445" x2="601" y1="328.2969" y2="328.2969"/><text fill="#000000" font-family="sans-serif" font-size="14" font-weight="bold" lengthAdjust="spacing" textLength="143" x="449" y="320.9951">Location Services</text></g><!--cluster Repository Service--><g id="cluster_Repository Service"><path d="M206.5,427 L358.5,427 A3.75,3.75 0 0 1 361,429.5 L368,449.2969 L769.5,449.2969 A2.5,2.5 0 0 1 772,451.7969 L772,521.5 A2.5,2.5 0 0 1 769.5,524 L206.5,524 A2.5,2.5 0 0 1 204,521.5 L204,429.5 A2.5,2.5 0 0 1 206.5,427 " fill="none" style="stroke:#000000;stroke-width:1.5;"/><line style="stroke:#000000;stroke-width:1.5;" x1="204" x2="368" y1="449.2969" y2="449.2969"/><text fill="#000000" font-family="sans-serif" font-size="14" font-weight="bold" lengthAdjust="spacing" textLength="151" x="208" y="441.9951">Repository Service</text></g><!--cluster Utility Services--><g id="cluster_Utility Services"><path d="M798.5,427 L922.5,427 A3.75,3.75 0 0 1 925,429.5 L932,449.2969 L1768.5,449.2969 A2.5,2.5 0 0 1 1771,451.7969 L1771,521.5 A2.5,2.5 0 0 1 1768.5,524 L798.5,524 A2.5,2.5 0 0 1 796,521.5 L796,429.5 A2.5,2.5 0 0 1 798.5,427 " fill="none" style="stroke:#000000;stroke-width:1.5;"/><line style="stroke:#000000;stroke-width:1.5;" x1="796" x2="932" y1="449.2969" y2="449.2969"/><text fill="#000000" font-family="sans-serif" font-size="14" font-weight="bold" lengthAdjust="spacing" textLength="123" x="800" y="441.9951">Utility Services</text></g><!--entity NAO--><g id="elem_NAO"><rect fill="#F1F1F1" height="46.2969" rx="2.5" ry="2.5" style="stroke:#181818;stroke-width:0.5;" width="152" x="1161" y="84"/><rect fill="#F1F1F1" height="10" style="stroke:#181818;stroke-width:0.5;" width="15" x="1293" y="89"/><rect fill="#F1F1F1" height="2" style="stroke:#181818;stroke-width:0.5;" width="4" x="1291" y="91"/><rect fill="#F1F1F1" height="2" style="stroke:#181818;stroke-width:0.5;" width="4" x="1291" y="95"/><text fill="#000000" font-family="sans-serif" font-size="14" lengthAdjust="spacing" textLength="112" x="1176" y="116.9951">G3 NAO Service</text></g><!--entity Chat--><g id="elem_Chat"><rect fill="#F1F1F1" height="46.2969" rx="2.5" ry="2.5" style="stroke:#181818;stroke-width:0.5;" width="131" x="994.5" y="84"/><rect fill="#F1F1F1" height="10" style="stroke:#181818;stroke-width:0.5;" width="15" x="1105.5" y="89"/><rect fill="#F1F1F1" height="2" style="stroke:#181818;stroke-width:0.5;" width="4" x="1103.5" y="91"/><rect fill="#F1F1F1" height="2" style="stroke:#181818;stroke-width:0.5;" width="4" x="1103.5" y="95"/><text fill="#000000" font-family="sans-serif" font-size="14" lengthAdjust="spacing" textLength="91" x="1009.5" y="116.9951">Chat Service</text></g><!--entity Alexa--><g id="elem_Alexa"><rect fill="#F1F1F1" height="46.2969" rx="2.5" ry="2.5" style="stroke:#181818;stroke-width:0.5;" width="136" x="823" y="84"/><rect fill="#F1F1F1" height="10" style="stroke:#181818;stroke-width:0.5;" width="15" x="939" y="89"/><rect fill="#F1F1F1" height="2" style="stroke:#181818;stroke-width:0.5;" width="4" x="937" y="91"/><rect fill="#F1F1F1" height="2" style="stroke:#181818;stroke-width:0.5;" width="4" x="937" y="95"/><text fill="#000000" font-family="sans-serif" font-size="14" lengthAdjust="spacing" textLength="96" x="838" y="116.9951">Alexa Service</text></g><!--entity API-Gateway--><g id="elem_API-Gateway"><rect fill="#F1F1F1" height="46.2969" rx="2.5" ry="2.5" style="stroke:#181818;stroke-width:0.5;" width="131" x="884.5" y="205"/><rect fill="#F1F1F1" height="10" style="stroke:#181818;stroke-width:0.5;" width="15" x="995.5" y="210"/><rect fill="#F1F1F1" height="2" style="stroke:#181818;stroke-width:0.5;" width="4" x="993.5" y="212"/><rect fill="#F1F1F1" height="2" style="stroke:#181818;stroke-width:0.5;" width="4" x="993.5" y="216"/><text fill="#000000" font-family="sans-serif" font-size="14" lengthAdjust="spacing" textLength="91" x="899.5" y="237.9951">API-Gateway</text></g><!--entity HTTP--><g id="elem_HTTP"><ellipse cx="1060" cy="228" fill="#F1F1F1" rx="8" ry="8" style="stroke:#181818;stroke-width:0.5;"/><text fill="#000000" font-family="sans-serif" font-size="14" lengthAdjust="spacing" textLength="37" x="1041.5" y="257.9951">HTTP</text></g><!--entity NLP-Service--><g id="elem_NLP-Service"><rect fill="#F1F1F1" height="46.2969" rx="2.5" ry="2.5" style="stroke:#181818;stroke-width:0.5;" width="126" x="702" y="205"/><rect fill="#F1F1F1" height="10" style="stroke:#181818;stroke-width:0.5;" width="15" x="808" y="210"/><rect fill="#F1F1F1" height="2" style="stroke:#181818;stroke-width:0.5;" width="4" x="806" y="212"/><rect fill="#F1F1F1" height="2" style="stroke:#181818;stroke-width:0.5;" width="4" x="806" y="216"/><text fill="#000000" font-family="sans-serif" font-size="14" lengthAdjust="spacing" textLength="86" x="717" y="237.9951">NLP-Service</text></g><!--entity NOSQL--><g id="elem_NOSQL"><rect fill="#F1F1F1" height="46.2969" rx="2.5" ry="2.5" style="stroke:#181818;stroke-width:0.5;" width="87" x="317.5" y="341"/><rect fill="#F1F1F1" height="10" style="stroke:#181818;stroke-width:0.5;" width="15" x="384.5" y="346"/><rect fill="#F1F1F1" height="2" style="stroke:#181818;stroke-width:0.5;" width="4" x="382.5" y="348"/><rect fill="#F1F1F1" height="2" style="stroke:#181818;stroke-width:0.5;" width="4" x="382.5" y="352"/><text fill="#000000" font-family="sans-serif" font-size="14" lengthAdjust="spacing" textLength="47" x="332.5" y="373.9951">NoSQL</text></g><!--entity MQTT--><g id="elem_MQTT"><ellipse cx="55" cy="364" fill="#F1F1F1" rx="8" ry="8" style="stroke:#181818;stroke-width:0.5;"/><text fill="#000000" font-family="sans-serif" font-size="14" lengthAdjust="spacing" textLength="41" x="34.5" y="393.9951">MQTT</text></g><!--entity IoT-Orchestrator--><g id="elem_IoT-Orchestrator"><rect fill="#F1F1F1" height="46.2969" rx="2.5" ry="2.5" style="stroke:#181818;stroke-width:0.5;" width="161" x="99.5" y="341"/><rect fill="#F1F1F1" height="10" style="stroke:#181818;stroke-width:0.5;" width="15" x="240.5" y="346"/><rect fill="#F1F1F1" height="2" style="stroke:#181818;stroke-width:0.5;" width="4" x="238.5" y="348"/><rect fill="#F1F1F1" height="2" style="stroke:#181818;stroke-width:0.5;" width="4" x="238.5" y="352"/><text fill="#000000" font-family="sans-serif" font-size="14" lengthAdjust="spacing" textLength="121" x="114.5" y="373.9951">IoT-Orchestrator</text></g><!--entity Subscriber--><g id="elem_Subscriber"><rect fill="#F1F1F1" height="46.2969" rx="2.5" ry="2.5" style="stroke:#181818;stroke-width:0.5;" width="117" x="46.5" y="462"/><rect fill="#F1F1F1" height="10" style="stroke:#181818;stroke-width:0.5;" width="15" x="143.5" y="467"/><rect fill="#F1F1F1" height="2" style="stroke:#181818;stroke-width:0.5;" width="4" x="141.5" y="469"/><rect fill="#F1F1F1" height="2" style="stroke:#181818;stroke-width:0.5;" width="4" x="141.5" y="473"/><text fill="#000000" font-family="sans-serif" font-size="14" lengthAdjust="spacing" textLength="77" x="61.5" y="494.9951">Subscriber</text></g><!--entity RDF--><g id="elem_RDF"><rect fill="#F1F1F1" height="46.2969" rx="2.5" ry="2.5" style="stroke:#181818;stroke-width:0.5;" width="113" x="453.5" y="598"/><rect fill="#F1F1F1" height="10" style="stroke:#181818;stroke-width:0.5;" width="15" x="546.5" y="603"/><rect fill="#F1F1F1" height="2" style="stroke:#181818;stroke-width:0.5;" width="4" x="544.5" y="605"/><rect fill="#F1F1F1" height="2" style="stroke:#181818;stroke-width:0.5;" width="4" x="544.5" y="609"/><text fill="#000000" font-family="sans-serif" font-size="14" lengthAdjust="spacing" textLength="73" x="468.5" y="630.9951">RDF Store</text></g><!--entity G4--><g id="elem_G4"><rect fill="#F1F1F1" height="46.2969" rx="2.5" ry="2.5" style="stroke:#181818;stroke-width:0.5;" width="193" x="702.5" y="341"/><rect fill="#F1F1F1" height="10" style="stroke:#181818;stroke-width:0.5;" width="15" x="875.5" y="346"/><rect fill="#F1F1F1" height="2" style="stroke:#181818;stroke-width:0.5;" width="4" x="873.5" y="348"/><rect fill="#F1F1F1" height="2" style="stroke:#181818;stroke-width:0.5;" width="4" x="873.5" y="352"/><text fill="#000000" font-family="sans-serif" font-size="14" lengthAdjust="spacing" textLength="153" x="717.5" y="373.9951">G4 Determine Pickup</text></g><!--entity G6--><g id="elem_G6"><rect fill="#F1F1F1" height="46.2969" rx="2.5" ry="2.5" style="stroke:#181818;stroke-width:0.5;" width="206" x="461" y="341"/><rect fill="#F1F1F1" height="10" style="stroke:#181818;stroke-width:0.5;" width="15" x="647" y="346"/><rect fill="#F1F1F1" height="2" style="stroke:#181818;stroke-width:0.5;" width="4" x="645" y="348"/><rect fill="#F1F1F1" height="2" style="stroke:#181818;stroke-width:0.5;" width="4" x="645" y="352"/><text fill="#000000" font-family="sans-serif" font-size="14" lengthAdjust="spacing" textLength="166" x="476" y="373.9951">G6 Predict Car Position</text></g><!--entity G1--><g id="elem_G1"><rect fill="#F1F1F1" height="46.2969" rx="2.5" ry="2.5" style="stroke:#181818;stroke-width:0.5;" width="295" x="220.5" y="462"/><rect fill="#F1F1F1" height="10" style="stroke:#181818;stroke-width:0.5;" width="15" x="495.5" y="467"/><rect fill="#F1F1F1" height="2" style="stroke:#181818;stroke-width:0.5;" width="4" x="493.5" y="469"/><rect fill="#F1F1F1" height="2" style="stroke:#181818;stroke-width:0.5;" width="4" x="493.5" y="473"/><text fill="#000000" font-family="sans-serif" font-size="14" lengthAdjust="spacing" textLength="255" x="235.5" y="494.9951">G1 Transform to Semantic Network</text></g><!--entity G2--><g id="elem_G2"><rect fill="#F1F1F1" height="46.2969" rx="2.5" ry="2.5" style="stroke:#181818;stroke-width:0.5;" width="205" x="550.5" y="462"/><rect fill="#F1F1F1" height="10" style="stroke:#181818;stroke-width:0.5;" width="15" x="735.5" y="467"/><rect fill="#F1F1F1" height="2" style="stroke:#181818;stroke-width:0.5;" width="4" x="733.5" y="469"/><rect fill="#F1F1F1" height="2" style="stroke:#181818;stroke-width:0.5;" width="4" x="733.5" y="473"/><text fill="#000000" font-family="sans-serif" font-size="14" lengthAdjust="spacing" textLength="165" x="565.5" y="494.9951">G2 Generate Response</text></g><!--entity G7--><g id="elem_G7"><rect fill="#F1F1F1" height="46.2969" rx="2.5" ry="2.5" style="stroke:#181818;stroke-width:0.5;" width="291" x="812.5" y="462"/><rect fill="#F1F1F1" height="10" style="stroke:#181818;stroke-width:0.5;" width="15" x="1083.5" y="467"/><rect fill="#F1F1F1" height="2" style="stroke:#181818;stroke-width:0.5;" width="4" x="1081.5" y="469"/><rect fill="#F1F1F1" height="2" style="stroke:#181818;stroke-width:0.5;" width="4" x="1081.5" y="473"/><text fill="#000000" font-family="sans-serif" font-size="14" lengthAdjust="spacing" textLength="251" x="827.5" y="494.9951">G7 Decide On Request Acceptance</text></g><!--entity G8--><g id="elem_G8"><rect fill="#F1F1F1" height="46.2969" rx="2.5" ry="2.5" style="stroke:#181818;stroke-width:0.5;" width="173" x="1138.5" y="462"/><rect fill="#F1F1F1" height="10" style="stroke:#181818;stroke-width:0.5;" width="15" x="1291.5" y="467"/><rect fill="#F1F1F1" height="2" style="stroke:#181818;stroke-width:0.5;" width="4" x="1289.5" y="469"/><rect fill="#F1F1F1" height="2" style="stroke:#181818;stroke-width:0.5;" width="4" x="1289.5" y="473"/><text fill="#000000" font-family="sans-serif" font-size="14" lengthAdjust="spacing" textLength="133" x="1153.5" y="494.9951">G8 Adapt Proposal</text></g><!--entity G9--><g id="elem_G9"><rect fill="#F1F1F1" height="46.2969" rx="2.5" ry="2.5" style="stroke:#181818;stroke-width:0.5;" width="171" x="1346.5" y="462"/><rect fill="#F1F1F1" height="10" style="stroke:#181818;stroke-width:0.5;" width="15" x="1497.5" y="467"/><rect fill="#F1F1F1" height="2" style="stroke:#181818;stroke-width:0.5;" width="4" x="1495.5" y="469"/><rect fill="#F1F1F1" height="2" style="stroke:#181818;stroke-width:0.5;" width="4" x="1495.5" y="473"/><text fill="#000000" font-family="sans-serif" font-size="14" lengthAdjust="spacing" textLength="131" x="1361.5" y="494.9951">G9 Optimize Price</text></g><!--entity G5--><g id="elem_G5"><rect fill="#F1F1F1" height="46.2969" rx="2.5" ry="2.5" style="stroke:#181818;stroke-width:0.5;" width="202" x="1553" y="462"/><rect fill="#F1F1F1" height="10" style="stroke:#181818;stroke-width:0.5;" width="15" x="1735" y="467"/><rect fill="#F1F1F1" height="2" style="stroke:#181818;stroke-width:0.5;" width="4" x="1733" y="469"/><rect fill="#F1F1F1" height="2" style="stroke:#181818;stroke-width:0.5;" width="4" x="1733" y="473"/><text fill="#000000" font-family="sans-serif" font-size="14" lengthAdjust="spacing" textLength="162" x="1568" y="494.9951">G5 Propose Car Action</text></g><!--link API-Gateway to HTTP--><g id="link_API-Gateway_HTTP"><path d="M1015.74,228 C1027.38,228 1039.02,228 1050.66,228 " fill="none" id="API-Gateway-HTTP" style="stroke:#181818;stroke-width:1.0;"/></g><!--link NAO to HTTP--><g id="link_NAO_HTTP"><path d="M1204.12,130.104 C1162.73,157.931 1099.0294,200.7615 1074.2494,217.4205 " fill="none" id="NAO-to-HTTP" style="stroke:#181818;stroke-width:1.0;"/><polygon fill="#181818" points="1069.27,220.768,1078.9707,219.0663,1073.4195,217.9784,1074.5074,212.4271,1069.27,220.768" style="stroke:#181818;stroke-width:1.0;"/></g><!--link Chat to HTTP--><g id="link_Chat_HTTP"><path d="M1060,130.104 C1060,156.99 1060,195.007 1060,212.978 " fill="none" id="Chat-to-HTTP" style="stroke:#181818;stroke-width:1.0;"/><polygon fill="#181818" points="1060,218.978,1064,209.978,1060,213.978,1056,209.978,1060,218.978" style="stroke:#181818;stroke-width:1.0;"/></g><!--link Alexa to HTTP--><g id="link_Alexa_HTTP"><path d="M925.739,130.163 C940.932,138.894 959.3,148.202 977,154 C1000.89,161.826 1013.13,146.595 1033,162 C1051.16,176.076 1056.3977,198.5882 1058.3277,212.7122 " fill="none" id="Alexa-to-HTTP" style="stroke:#181818;stroke-width:1.0;"/><polygon fill="#181818" points="1059.14,218.657,1061.8847,209.1983,1058.4631,213.703,1053.9583,210.2814,1059.14,218.657" style="stroke:#181818;stroke-width:1.0;"/></g><!--link API-Gateway to NLP-Service--><g id="link_API-Gateway_NLP-Service"><path d="M884.36,212.204 C865.651,210.178 852.9007,209.5658 834.1907,211.7738 " fill="none" id="API-Gateway-to-NLP-Service" style="stroke:#181818;stroke-width:1.0;"/><polygon fill="#181818" points="828.232,212.477,837.6388,215.3946,833.1975,211.891,836.7012,207.4498,828.232,212.477" style="stroke:#181818;stroke-width:1.0;"/></g><!--link API-Gateway to NOSQL--><g id="link_API-Gateway_NOSQL"><path d="M909.467,251.018 C890.22,260.302 866.54,270.084 844,275 C800.676,284.449 486.004,266.12 445,283 C416.321,294.806 395.437,316.6253 380.409,335.9103 " fill="none" id="API-Gateway-to-NOSQL" style="stroke:#181818;stroke-width:1.0;stroke-dasharray:7.0,7.0;"/><polygon fill="#181818" points="376.721,340.643,385.4082,336.0026,379.7943,336.6991,379.0979,331.0853,376.721,340.643" style="stroke:#181818;stroke-width:1.0;"/></g><!--link MQTT to IoT-Orchestrator--><g id="link_MQTT_IoT-Orchestrator"><path d="M64.2773,364 C75.8797,364 87.4821,364 99.085,364 " fill="none" id="MQTT-IoT-Orchestrator" style="stroke:#181818;stroke-width:1.0;"/></g><!--link API-Gateway to MQTT--><g id="link_API-Gateway_MQTT"><path d="M909.488,251.116 C890.246,260.421 866.563,270.192 844,275 C823.297,279.412 99.13,270.565 82,283 C58.6306,299.964 55.3548,332.1951 55.033,348.9151 " fill="none" id="API-Gateway-to-MQTT" style="stroke:#181818;stroke-width:1.0;"/><polygon fill="#181818" points="54.9175,354.914,59.0899,345.9926,55.0137,349.9149,51.0914,345.8387,54.9175,354.914" style="stroke:#181818;stroke-width:1.0;"/></g><!--link API-Gateway to G4--><g id="link_API-Gateway_G4"><path d="M925.065,251.127 C897.088,275.955 856.4527,312.0155 828.4597,336.8575 " fill="none" id="API-Gateway-to-G4" style="stroke:#181818;stroke-width:1.0;"/><polygon fill="#181818" points="823.972,340.84,833.3586,337.858,827.7117,337.5212,828.0485,331.8744,823.972,340.84" style="stroke:#181818;stroke-width:1.0;"/></g><!--link API-Gateway to G6--><g id="link_API-Gateway_G6"><path d="M908.641,251.069 C889.518,260.183 866.17,269.812 844,275 C809.552,283.06 718.613,271.964 685,283 C648.153,295.097 616.4634,317.7538 593.3844,336.9448 " fill="none" id="API-Gateway-to-G6" style="stroke:#181818;stroke-width:1.0;"/><polygon fill="#181818" points="588.771,340.781,598.2486,338.1023,592.6155,337.5842,593.1336,331.9511,588.771,340.781" style="stroke:#181818;stroke-width:1.0;"/></g><!--link G1 to RDF--><g id="link_G1_RDF"><path d="M391.448,508.127 C417.759,532.955 460.192,572.998 486.517,597.84 " fill="none" id="G1-RDF" style="stroke:#181818;stroke-width:1.0;stroke-dasharray:7.0,7.0;"/></g><!--link API-Gateway to G1--><g id="link_API-Gateway_G1"><path d="M944.47,251.02 C942.075,260.793 939.3,272.448 937,283 C924.658,339.635 956.352,373.68 912,411 C895.886,424.559 553.648,414.853 533,419 C490.136,427.608 449.4899,444.1176 416.9509,459.3836 " fill="none" id="API-Gateway-to-G1" style="stroke:#181818;stroke-width:1.0;"/><polygon fill="#181818" points="411.519,461.932,421.3658,461.7306,416.0456,459.8083,417.9679,454.4881,411.519,461.932" style="stroke:#181818;stroke-width:1.0;"/></g><!--link G2 to RDF--><g id="link_G2_RDF"><path d="M629.386,508.127 C602.891,532.955 560.159,572.998 533.649,597.84 " fill="none" id="G2-RDF" style="stroke:#181818;stroke-width:1.0;stroke-dasharray:7.0,7.0;"/></g><!--link API-Gateway to G2--><g id="link_API-Gateway_G2"><path d="M957.136,251.161 C967.973,289.606 983.158,368.6 941,411 C929.623,422.442 811.67,415.151 796,419 C758.658,428.173 724.358,444.1241 696.326,459.1521 " fill="none" id="API-Gateway-to-G2" style="stroke:#181818;stroke-width:1.0;"/><polygon fill="#181818" points="691.038,461.987,700.86,461.26,695.4447,459.6246,697.0801,454.2093,691.038,461.987" style="stroke:#181818;stroke-width:1.0;"/></g><!--link API-Gateway to G7--><g id="link_API-Gateway_G7"><path d="M964.545,251.166 C969.893,260.577 975.298,271.919 978,283 C991.48,338.269 985.584,354.619 978,411 C975.653,428.451 972.1125,441.9197 967.5275,456.2407 " fill="none" id="API-Gateway-to-G7" style="stroke:#181818;stroke-width:1.0;"/><polygon fill="#181818" points="965.698,461.955,972.2517,454.6032,967.2226,457.1931,964.6327,452.1639,965.698,461.955" style="stroke:#181818;stroke-width:1.0;"/></g><!--link API-Gateway to G8--><g id="link_API-Gateway_G8"><path d="M973.923,251.183 C1025.93,299.41 1144.4002,409.2625 1196.5402,457.6065 " fill="none" id="API-Gateway-to-G8" style="stroke:#181818;stroke-width:1.0;"/><polygon fill="#181818" points="1200.94,461.686,1197.06,452.6336,1197.2735,458.2865,1191.6207,458.5,1200.94,461.686" style="stroke:#181818;stroke-width:1.0;"/></g><!--link API-Gateway to G9--><g id="link_API-Gateway_G9"><path d="M983.455,251.124 C998.11,259.849 1015.84,269.163 1033,275 C1055.55,282.673 1063.46,275.28 1086,283 C1203.08,323.108 1222.63,355.73 1329,419 C1352.26,432.836 1372.9598,445.8464 1392.8998,458.6374 " fill="none" id="API-Gateway-to-G9" style="stroke:#181818;stroke-width:1.0;"/><polygon fill="#181818" points="1397.95,461.877,1392.5344,453.6508,1393.7415,459.1773,1388.2149,460.3844,1397.95,461.877" style="stroke:#181818;stroke-width:1.0;"/></g><!--link API-Gateway to G5--><g id="link_API-Gateway_G5"><path d="M981.602,251.034 C996.49,260.2 1014.93,269.882 1033,275 C1107.48,296.097 1131.44,266.143 1207,283 C1361.03,317.362 1392.66,350.855 1535,419 C1562.6,432.215 1587.6409,445.8101 1610.7309,458.9051 " fill="none" id="API-Gateway-to-G5" style="stroke:#181818;stroke-width:1.0;"/><polygon fill="#181818" points="1615.95,461.865,1610.0946,453.9458,1611.6008,459.3984,1606.1481,460.9045,1615.95,461.865" style="stroke:#181818;stroke-width:1.0;"/></g><!--link IoT-Orchestrator to Subscriber--><g id="link_IoT-Orchestrator_Subscriber"><path d="M166.069,387.104 C152.682,408.344 135.7561,435.199 122.3101,456.534 " fill="none" id="IoT-Orchestrator-to-Subscriber" style="stroke:#181818;stroke-width:1.0;"/><polygon fill="#181818" points="119.111,461.61,127.2936,456.1287,121.7769,457.38,120.5256,451.8633,119.111,461.61" style="stroke:#181818;stroke-width:1.0;"/></g><!--SRC=[XLDDRzf04BtxLunoToHe-Bf4ieZgHgBOASu9-R0iGrXXxxgxIvEqod_lh1SR71TLui3ErtlpthXY_C1U46xcJCDgpxIGBv1elaTZDRD2oHlu4mGxpKegIaefmlcUIOc5SGc0TVm5bb42AzI_1CSSc75lbw52sucxW4j41RwnJgQE11z1K3LyOcRnbRsVGABqCJn5SWZXMvQbBan0z0plsu13w4RgoHUXIumCtopC2sQCs0dURjl3koUaHHesXDsCBRDimmmD-O6LCi8gtN1TgjNJmkkGqB_UkDjRDy-byWwRzBWfXDcZzdE-FsKPhRf-L5buDaJflC-F2BfgDuqNwhZrF5R7ZU5QR51_OkninYry9ivLMIc9qj9E3rzXHHcySMlGgqDqeRnMZOFj9Tp10rhKfP08gU27OrNB4D_zapBLkrtyRnsF8ILMWfCZT8gfeqOOVi3uoe1nLy7pHWsrXja0CisasIbTWbMKBPcqWiCIxQlI1uyoyANEeNhdFcODEiWRoaE8KIAvWYIc8V6Cl-PuwDF_cpJiqd-seX3slIVhX6JbOekGICBvUQHBW8Xph2oJf-yddbp3cBHifn1jMML9PaKoiS8tJgyrJjl66IIL5QNuJQxgvekDPzSQPtdhwUW4XhMd4JyxEhhMFQerwL-zT_pofeFWuoy0]--></g></svg>