<svg xmlns="http://www.w3.org/2000/svg" xmlns:xlink="http://www.w3.org/1999/xlink" contentStyleType="text/css" height="2611px" preserveAspectRatio="none" style="width:1322px;height:2611px;background:#FFFFFF;" version="1.1" viewBox="0 0 1322 2611" width="1322px" zoomAndPan="magnify"><defs/><g><rect fill="#F1F1F1" height="36.2969" rx="12.5" ry="12.5" style="stroke:#181818;stroke-width:1.5;" width="177.9512" x="10" y="1286.6797"/><text fill="#000000" font-family="sans-serif" font-size="14" lengthAdjust="spacing" textLength="157.9512" x="20" y="1309.6748">Car Service NLP Model</text><rect fill="#D3D3D3" height="36.2969" rx="12.5" ry="12.5" style="stroke:#181818;stroke-width:1.5;" width="140.0254" x="237.9512" y="1286.6797"/><text fill="#000000" font-family="sans-serif" font-size="14" lengthAdjust="spacing" textLength="115.5752" x="247.9512" y="1309.6748">Language Model</text><rect fill="#ADD8E6" height="36.2969" rx="12.5" ry="12.5" style="stroke:#181818;stroke-width:1.5;" width="143.1494" x="427.9766" y="20"/><text fill="#000000" font-family="sans-serif" font-size="14" lengthAdjust="spacing" textLength="118.6992" x="437.9766" y="42.9951">Invocation Name</text><rect fill="#F1F1F1" height="36.2969" rx="12.5" ry="12.5" style="stroke:#181818;stroke-width:1.5;" width="96.6309" x="621.126" y="20"/><text fill="#000000" font-family="sans-serif" font-size="14" lengthAdjust="spacing" textLength="76.6309" x="631.126" y="42.9951">car service</text><path d="M571.126,38.1484 L581.126,38.1484 C596.126,38.1484 596.126,38.1484 611.126,38.1484 L621.126,38.1484 " fill="none" style="stroke:#181818;stroke-width:1.0;"/><path d="M377.9766,1304.8281 L387.9766,1304.8281 C402.9766,1304.8281 402.9766,38.1484 417.9766,38.1484 L427.9766,38.1484 " fill="none" style="stroke:#181818;stroke-width:1.0;"/><rect fill="#D3D3D3" height="36.2969" rx="12.5" ry="12.5" style="stroke:#181818;stroke-width:1.5;" width="73.2109" x="427.9766" y="1314.8281"/><text fill="#000000" font-family="sans-serif" font-size="14" lengthAdjust="spacing" textLength="48.7607" x="437.9766" y="1337.8232">Intents</text><rect fill="#90EE90" height="36.2969" rx="12.5" ry="12.5" style="stroke:#181818;stroke-width:1.5;" width="180.1113" x="551.1875" y="76.2969"/><text fill="#000000" font-family="sans-serif" font-size="14" lengthAdjust="spacing" textLength="155.6611" x="561.1875" y="99.292">AMAZON.CancelIntent</text><rect fill="#FFFFE0" height="36.2969" rx="12.5" ry="12.5" style="stroke:#181818;stroke-width:1.5;" width="84.2373" x="781.2988" y="76.2969"/><text fill="#000000" font-family="sans-serif" font-size="14" lengthAdjust="spacing" textLength="59.7871" x="791.2988" y="99.292">Samples</text><rect fill="#F1F1F1" height="36.2969" rx="12.5" ry="12.5" style="stroke:#181818;stroke-width:1.5;" width="56.5244" x="915.5361" y="76.2969"/><text fill="#000000" font-family="sans-serif" font-size="14" lengthAdjust="spacing" textLength="36.5244" x="925.5361" y="99.292">None</text><path d="M865.5361,94.4453 L875.5361,94.4453 C890.5361,94.4453 890.5361,94.4453 905.5361,94.4453 L915.5361,94.4453 " fill="none" style="stroke:#181818;stroke-width:1.0;"/><path d="M731.2988,94.4453 L741.2988,94.4453 C756.2988,94.4453 756.2988,94.4453 771.2988,94.4453 L781.2988,94.4453 " fill="none" style="stroke:#181818;stroke-width:1.0;"/><path d="M501.1875,1332.9766 L511.1875,1332.9766 C526.1875,1332.9766 526.1875,94.4453 541.1875,94.4453 L551.1875,94.4453 " fill="none" style="stroke:#181818;stroke-width:1.0;"/><rect fill="#90EE90" height="36.2969" rx="12.5" ry="12.5" style="stroke:#181818;stroke-width:1.5;" width="164.6006" x="551.1875" y="132.5938"/><text fill="#000000" font-family="sans-serif" font-size="14" lengthAdjust="spacing" textLength="140.1504" x="561.1875" y="155.5889">AMAZON.HelpIntent</text><rect fill="#FFFFE0" height="36.2969" rx="12.5" ry="12.5" style="stroke:#181818;stroke-width:1.5;" width="84.2373" x="765.7881" y="132.5938"/><text fill="#000000" font-family="sans-serif" font-size="14" lengthAdjust="spacing" textLength="59.7871" x="775.7881" y="155.5889">Samples</text><rect fill="#F1F1F1" height="36.2969" rx="12.5" ry="12.5" style="stroke:#181818;stroke-width:1.5;" width="56.5244" x="900.0254" y="132.5938"/><text fill="#000000" font-family="sans-serif" font-size="14" lengthAdjust="spacing" textLength="36.5244" x="910.0254" y="155.5889">None</text><path d="M850.0254,150.7422 L860.0254,150.7422 C875.0254,150.7422 875.0254,150.7422 890.0254,150.7422 L900.0254,150.7422 " fill="none" style="stroke:#181818;stroke-width:1.0;"/><path d="M715.7881,150.7422 L725.7881,150.7422 C740.7881,150.7422 740.7881,150.7422 755.7881,150.7422 L765.7881,150.7422 " fill="none" style="stroke:#181818;stroke-width:1.0;"/><path d="M501.1875,1332.9766 L511.1875,1332.9766 C526.1875,1332.9766 526.1875,150.7422 541.1875,150.7422 L551.1875,150.7422 " fill="none" style="stroke:#181818;stroke-width:1.0;"/><rect fill="#90EE90" height="36.2969" rx="12.5" ry="12.5" style="stroke:#181818;stroke-width:1.5;" width="164.5117" x="551.1875" y="188.8906"/><text fill="#000000" font-family="sans-serif" font-size="14" lengthAdjust="spacing" textLength="140.0615" x="561.1875" y="211.8857">AMAZON.StopIntent</text><rect fill="#FFFFE0" height="36.2969" rx="12.5" ry="12.5" style="stroke:#181818;stroke-width:1.5;" width="84.2373" x="765.6992" y="188.8906"/><text fill="#000000" font-family="sans-serif" font-size="14" lengthAdjust="spacing" textLength="59.7871" x="775.6992" y="211.8857">Samples</text><rect fill="#F1F1F1" height="36.2969" rx="12.5" ry="12.5" style="stroke:#181818;stroke-width:1.5;" width="56.5244" x="899.9365" y="188.8906"/><text fill="#000000" font-family="sans-serif" font-size="14" lengthAdjust="spacing" textLength="36.5244" x="909.9365" y="211.8857">None</text><path d="M849.9365,207.0391 L859.9365,207.0391 C874.9365,207.0391 874.9365,207.0391 889.9365,207.0391 L899.9365,207.0391 " fill="none" style="stroke:#181818;stroke-width:1.0;"/><path d="M715.6992,207.0391 L725.6992,207.0391 C740.6992,207.0391 740.6992,207.0391 755.6992,207.0391 L765.6992,207.0391 " fill="none" style="stroke:#181818;stroke-width:1.0;"/><path d="M501.1875,1332.9766 L511.1875,1332.9766 C526.1875,1332.9766 526.1875,207.0391 541.1875,207.0391 L551.1875,207.0391 " fill="none" style="stroke:#181818;stroke-width:1.0;"/><rect fill="#90EE90" height="36.2969" rx="12.5" ry="12.5" style="stroke:#181818;stroke-width:1.5;" width="142.3428" x="551.1875" y="414.0781"/><text fill="#000000" font-family="sans-serif" font-size="14" lengthAdjust="spacing" textLength="117.8926" x="561.1875" y="437.0732">HelloWorldIntent</text><rect fill="#FFFFE0" height="36.2969" rx="12.5" ry="12.5" style="stroke:#181818;stroke-width:1.5;" width="84.2373" x="743.5303" y="414.0781"/><text fill="#000000" font-family="sans-serif" font-size="14" lengthAdjust="spacing" textLength="59.7871" x="753.5303" y="437.0732">Samples</text><rect fill="#F1F1F1" height="36.2969" rx="12.5" ry="12.5" style="stroke:#181818;stroke-width:1.5;" width="53.8311" x="877.7676" y="245.1875"/><text fill="#000000" font-family="sans-serif" font-size="14" lengthAdjust="spacing" textLength="33.8311" x="887.7676" y="268.1826">hello</text><path d="M827.7676,432.2266 L837.7676,432.2266 C852.7676,432.2266 852.7676,263.3359 867.7676,263.3359 L877.7676,263.3359 " fill="none" style="stroke:#181818;stroke-width:1.0;"/><rect fill="#F1F1F1" height="36.2969" rx="12.5" ry="12.5" style="stroke:#181818;stroke-width:1.5;" width="106.4609" x="877.7676" y="301.4844"/><text fill="#000000" font-family="sans-serif" font-size="14" lengthAdjust="spacing" textLength="86.4609" x="887.7676" y="324.4795">how are you</text><path d="M827.7676,432.2266 L837.7676,432.2266 C852.7676,432.2266 852.7676,319.6328 867.7676,319.6328 L877.7676,319.6328 " fill="none" style="stroke:#181818;stroke-width:1.0;"/><rect fill="#F1F1F1" height="36.2969" rx="12.5" ry="12.5" style="stroke:#181818;stroke-width:1.5;" width="104.3691" x="877.7676" y="357.7813"/><text fill="#000000" font-family="sans-serif" font-size="14" lengthAdjust="spacing" textLength="84.3691" x="887.7676" y="380.7764">say hi world</text><path d="M827.7676,432.2266 L837.7676,432.2266 C852.7676,432.2266 852.7676,375.9297 867.7676,375.9297 L877.7676,375.9297 " fill="none" style="stroke:#181818;stroke-width:1.0;"/><rect fill="#F1F1F1" height="36.2969" rx="12.5" ry="12.5" style="stroke:#181818;stroke-width:1.5;" width="61.3711" x="877.7676" y="414.0781"/><text fill="#000000" font-family="sans-serif" font-size="14" lengthAdjust="spacing" textLength="41.3711" x="887.7676" y="437.0732">say hi</text><path d="M827.7676,432.2266 L837.7676,432.2266 C852.7676,432.2266 852.7676,432.2266 867.7676,432.2266 L877.7676,432.2266 " fill="none" style="stroke:#181818;stroke-width:1.0;"/><rect fill="#F1F1F1" height="36.2969" rx="12.5" ry="12.5" style="stroke:#181818;stroke-width:1.5;" width="32.7627" x="877.7676" y="470.375"/><text fill="#000000" font-family="sans-serif" font-size="14" lengthAdjust="spacing" textLength="12.7627" x="887.7676" y="493.3701">hi</text><path d="M827.7676,432.2266 L837.7676,432.2266 C852.7676,432.2266 852.7676,488.5234 867.7676,488.5234 L877.7676,488.5234 " fill="none" style="stroke:#181818;stroke-width:1.0;"/><rect fill="#F1F1F1" height="36.2969" rx="12.5" ry="12.5" style="stroke:#181818;stroke-width:1.5;" width="125.4375" x="877.7676" y="526.6719"/><text fill="#000000" font-family="sans-serif" font-size="14" lengthAdjust="spacing" textLength="105.4375" x="887.7676" y="549.667">say hello world</text><path d="M827.7676,432.2266 L837.7676,432.2266 C852.7676,432.2266 852.7676,544.8203 867.7676,544.8203 L877.7676,544.8203 " fill="none" style="stroke:#181818;stroke-width:1.0;"/><rect fill="#F1F1F1" height="36.2969" rx="12.5" ry="12.5" style="stroke:#181818;stroke-width:1.5;" width="82.4395" x="877.7676" y="582.9688"/><text fill="#000000" font-family="sans-serif" font-size="14" lengthAdjust="spacing" textLength="62.4395" x="887.7676" y="605.9639">say hello</text><path d="M827.7676,432.2266 L837.7676,432.2266 C852.7676,432.2266 852.7676,601.1172 867.7676,601.1172 L877.7676,601.1172 " fill="none" style="stroke:#181818;stroke-width:1.0;"/><path d="M693.5303,432.2266 L703.5303,432.2266 C718.5303,432.2266 718.5303,432.2266 733.5303,432.2266 L743.5303,432.2266 " fill="none" style="stroke:#181818;stroke-width:1.0;"/><path d="M501.1875,1332.9766 L511.1875,1332.9766 C526.1875,1332.9766 526.1875,432.2266 541.1875,432.2266 L551.1875,432.2266 " fill="none" style="stroke:#181818;stroke-width:1.0;"/><rect fill="#90EE90" height="36.2969" rx="12.5" ry="12.5" style="stroke:#181818;stroke-width:1.5;" width="236.8223" x="551.1875" y="639.2656"/><text fill="#000000" font-family="sans-serif" font-size="14" lengthAdjust="spacing" textLength="212.3721" x="561.1875" y="662.2607">AMAZON.NavigateHomeIntent</text><rect fill="#FFFFE0" height="36.2969" rx="12.5" ry="12.5" style="stroke:#181818;stroke-width:1.5;" width="84.2373" x="838.0098" y="639.2656"/><text fill="#000000" font-family="sans-serif" font-size="14" lengthAdjust="spacing" textLength="59.7871" x="848.0098" y="662.2607">Samples</text><rect fill="#F1F1F1" height="36.2969" rx="12.5" ry="12.5" style="stroke:#181818;stroke-width:1.5;" width="56.5244" x="972.2471" y="639.2656"/><text fill="#000000" font-family="sans-serif" font-size="14" lengthAdjust="spacing" textLength="36.5244" x="982.2471" y="662.2607">None</text><path d="M922.2471,657.4141 L932.2471,657.4141 C947.2471,657.4141 947.2471,657.4141 962.2471,657.4141 L972.2471,657.4141 " fill="none" style="stroke:#181818;stroke-width:1.0;"/><path d="M788.0098,657.4141 L798.0098,657.4141 C813.0098,657.4141 813.0098,657.4141 828.0098,657.4141 L838.0098,657.4141 " fill="none" style="stroke:#181818;stroke-width:1.0;"/><path d="M501.1875,1332.9766 L511.1875,1332.9766 C526.1875,1332.9766 526.1875,657.4141 541.1875,657.4141 L551.1875,657.4141 " fill="none" style="stroke:#181818;stroke-width:1.0;"/><rect fill="#90EE90" height="36.2969" rx="12.5" ry="12.5" style="stroke:#181818;stroke-width:1.5;" width="190.3652" x="551.1875" y="695.5625"/><text fill="#000000" font-family="sans-serif" font-size="14" lengthAdjust="spacing" textLength="165.915" x="561.1875" y="718.5576">AMAZON.FallbackIntent</text><rect fill="#FFFFE0" height="36.2969" rx="12.5" ry="12.5" style="stroke:#181818;stroke-width:1.5;" width="84.2373" x="791.5527" y="695.5625"/><text fill="#000000" font-family="sans-serif" font-size="14" lengthAdjust="spacing" textLength="59.7871" x="801.5527" y="718.5576">Samples</text><rect fill="#F1F1F1" height="36.2969" rx="12.5" ry="12.5" style="stroke:#181818;stroke-width:1.5;" width="56.5244" x="925.79" y="695.5625"/><text fill="#000000" font-family="sans-serif" font-size="14" lengthAdjust="spacing" textLength="36.5244" x="935.79" y="718.5576">None</text><path d="M875.79,713.7109 L885.79,713.7109 C900.79,713.7109 900.79,713.7109 915.79,713.7109 L925.79,713.7109 " fill="none" style="stroke:#181818;stroke-width:1.0;"/><path d="M741.5527,713.7109 L751.5527,713.7109 C766.5527,713.7109 766.5527,713.7109 781.5527,713.7109 L791.5527,713.7109 " fill="none" style="stroke:#181818;stroke-width:1.0;"/><path d="M501.1875,1332.9766 L511.1875,1332.9766 C526.1875,1332.9766 526.1875,713.7109 541.1875,713.7109 L551.1875,713.7109 " fill="none" style="stroke:#181818;stroke-width:1.0;"/><rect fill="#90EE90" height="36.2969" rx="12.5" ry="12.5" style="stroke:#181818;stroke-width:1.5;" width="113.0645" x="551.1875" y="892.6016"/><text fill="#000000" font-family="sans-serif" font-size="14" lengthAdjust="spacing" textLength="88.6143" x="561.1875" y="915.5967">RequestRide</text><rect fill="#FFBBCC" height="36.2969" rx="12.5" ry="12.5" style="stroke:#181818;stroke-width:1.5;" width="58.5752" x="714.252" y="780.0078"/><text fill="#000000" font-family="sans-serif" font-size="14" lengthAdjust="spacing" textLength="34.125" x="724.252" y="803.0029">Slots</text><rect fill="#F1F1F1" height="36.2969" rx="12.5" ry="12.5" style="stroke:#181818;stroke-width:1.5;" width="306.2412" x="822.8271" y="751.8594"/><text fill="#000000" font-family="sans-serif" font-size="14" lengthAdjust="spacing" textLength="286.2412" x="832.8271" y="774.8545">PickupLocation (AMAZON.AlphaNumeric)</text><path d="M772.8271,798.1563 L782.8271,798.1563 C797.8271,798.1563 797.8271,770.0078 812.8271,770.0078 L822.8271,770.0078 " fill="none" style="stroke:#181818;stroke-width:1.0;"/><rect fill="#F1F1F1" height="36.2969" rx="12.5" ry="12.5" style="stroke:#181818;stroke-width:1.5;" width="340.6807" x="822.8271" y="808.1563"/><text fill="#000000" font-family="sans-serif" font-size="14" lengthAdjust="spacing" textLength="320.6807" x="832.8271" y="831.1514">DestinationLocation (AMAZON.AlphaNumeric)</text><path d="M772.8271,798.1563 L782.8271,798.1563 C797.8271,798.1563 797.8271,826.3047 812.8271,826.3047 L822.8271,826.3047 " fill="none" style="stroke:#181818;stroke-width:1.0;"/><path d="M664.252,910.75 L674.252,910.75 C689.252,910.75 689.252,798.1563 704.252,798.1563 L714.252,798.1563 " fill="none" style="stroke:#181818;stroke-width:1.0;"/><rect fill="#FFFFE0" height="36.2969" rx="12.5" ry="12.5" style="stroke:#181818;stroke-width:1.5;" width="84.2373" x="714.252" y="948.8984"/><text fill="#000000" font-family="sans-serif" font-size="14" lengthAdjust="spacing" textLength="59.7871" x="724.252" y="971.8936">Samples</text><rect fill="#F1F1F1" height="36.2969" rx="12.5" ry="12.5" style="stroke:#181818;stroke-width:1.5;" width="444.9902" x="848.4893" y="864.4531"/><text fill="#000000" font-family="sans-serif" font-size="14" lengthAdjust="spacing" textLength="424.9902" x="858.4893" y="887.4482">Book a ride from {PickupLocation} to {DestinationLocation}</text><path d="M798.4893,967.0469 L808.4893,967.0469 C823.4893,967.0469 823.4893,882.6016 838.4893,882.6016 L848.4893,882.6016 " fill="none" style="stroke:#181818;stroke-width:1.0;"/><rect fill="#F1F1F1" height="36.2969" rx="12.5" ry="12.5" style="stroke:#181818;stroke-width:1.5;" width="461.7998" x="848.4893" y="920.75"/><text fill="#000000" font-family="sans-serif" font-size="14" lengthAdjust="spacing" textLength="441.7998" x="858.4893" y="943.7451">Get me a ride from {PickupLocation} to {DestinationLocation}</text><path d="M798.4893,967.0469 L808.4893,967.0469 C823.4893,967.0469 823.4893,938.8984 838.4893,938.8984 L848.4893,938.8984 " fill="none" style="stroke:#181818;stroke-width:1.0;"/><rect fill="#F1F1F1" height="36.2969" rx="12.5" ry="12.5" style="stroke:#181818;stroke-width:1.5;" width="453.7129" x="848.4893" y="977.0469"/><text fill="#000000" font-family="sans-serif" font-size="14" lengthAdjust="spacing" textLength="433.7129" x="858.4893" y="1000.042">I need a ride from {PickupLocation} to {DestinationLocation}</text><path d="M798.4893,967.0469 L808.4893,967.0469 C823.4893,967.0469 823.4893,995.1953 838.4893,995.1953 L848.4893,995.1953 " fill="none" style="stroke:#181818;stroke-width:1.0;"/><rect fill="#F1F1F1" height="36.2969" rx="12.5" ry="12.5" style="stroke:#181818;stroke-width:1.5;" width="454.1367" x="848.4893" y="1033.3438"/><text fill="#000000" font-family="sans-serif" font-size="14" lengthAdjust="spacing" textLength="434.1367" x="858.4893" y="1056.3389">RequestRide from {PickupLocation} to {DestinationLocation}</text><path d="M798.4893,967.0469 L808.4893,967.0469 C823.4893,967.0469 823.4893,1051.4922 838.4893,1051.4922 L848.4893,1051.4922 " fill="none" style="stroke:#181818;stroke-width:1.0;"/><path d="M664.252,910.75 L674.252,910.75 C689.252,910.75 689.252,967.0469 704.252,967.0469 L714.252,967.0469 " fill="none" style="stroke:#181818;stroke-width:1.0;"/><path d="M501.1875,1332.9766 L511.1875,1332.9766 C526.1875,1332.9766 526.1875,910.75 541.1875,910.75 L551.1875,910.75 " fill="none" style="stroke:#181818;stroke-width:1.0;"/><rect fill="#90EE90" height="36.2969" rx="12.5" ry="12.5" style="stroke:#181818;stroke-width:1.5;" width="110.9932" x="551.1875" y="1230.3828"/><text fill="#000000" font-family="sans-serif" font-size="14" lengthAdjust="spacing" textLength="86.543" x="561.1875" y="1253.3779">ConfirmRide</text><rect fill="#FFBBCC" height="36.2969" rx="12.5" ry="12.5" style="stroke:#181818;stroke-width:1.5;" width="58.5752" x="712.1807" y="1089.6406"/><text fill="#000000" font-family="sans-serif" font-size="14" lengthAdjust="spacing" textLength="34.125" x="722.1807" y="1112.6357">Slots</text><rect fill="#F1F1F1" height="36.2969" rx="12.5" ry="12.5" style="stroke:#181818;stroke-width:1.5;" width="56.5244" x="820.7559" y="1089.6406"/><text fill="#000000" font-family="sans-serif" font-size="14" lengthAdjust="spacing" textLength="36.5244" x="830.7559" y="1112.6357">None</text><path d="M770.7559,1107.7891 L780.7559,1107.7891 C795.7559,1107.7891 795.7559,1107.7891 810.7559,1107.7891 L820.7559,1107.7891 " fill="none" style="stroke:#181818;stroke-width:1.0;"/><path d="M662.1807,1248.5313 L672.1807,1248.5313 C687.1807,1248.5313 687.1807,1107.7891 702.1807,1107.7891 L712.1807,1107.7891 " fill="none" style="stroke:#181818;stroke-width:1.0;"/><rect fill="#FFFFE0" height="36.2969" rx="12.5" ry="12.5" style="stroke:#181818;stroke-width:1.5;" width="84.2373" x="712.1807" y="1258.5313"/><text fill="#000000" font-family="sans-serif" font-size="14" lengthAdjust="spacing" textLength="59.7871" x="722.1807" y="1281.5264">Samples</text><rect fill="#F1F1F1" height="36.2969" rx="12.5" ry="12.5" style="stroke:#181818;stroke-width:1.5;" width="133.3945" x="846.418" y="1145.9375"/><text fill="#000000" font-family="sans-serif" font-size="14" lengthAdjust="spacing" textLength="113.3945" x="856.418" y="1168.9326">Confirm my ride</text><path d="M796.418,1276.6797 L806.418,1276.6797 C821.418,1276.6797 821.418,1164.0859 836.418,1164.0859 L846.418,1164.0859 " fill="none" style="stroke:#181818;stroke-width:1.0;"/><rect fill="#F1F1F1" height="36.2969" rx="12.5" ry="12.5" style="stroke:#181818;stroke-width:1.5;" width="272.8271" x="846.418" y="1202.2344"/><text fill="#000000" font-family="sans-serif" font-size="14" lengthAdjust="spacing" textLength="252.8271" x="856.418" y="1225.2295">I have arrived at my pickup location</text><path d="M796.418,1276.6797 L806.418,1276.6797 C821.418,1276.6797 821.418,1220.3828 836.418,1220.3828 L846.418,1220.3828 " fill="none" style="stroke:#181818;stroke-width:1.0;"/><rect fill="#F1F1F1" height="36.2969" rx="12.5" ry="12.5" style="stroke:#181818;stroke-width:1.5;" width="126.2168" x="846.418" y="1258.5313"/><text fill="#000000" font-family="sans-serif" font-size="14" lengthAdjust="spacing" textLength="106.2168" x="856.418" y="1281.5264">Confirm pickup</text><path d="M796.418,1276.6797 L806.418,1276.6797 C821.418,1276.6797 821.418,1276.6797 836.418,1276.6797 L846.418,1276.6797 " fill="none" style="stroke:#181818;stroke-width:1.0;"/><rect fill="#F1F1F1" height="36.2969" rx="12.5" ry="12.5" style="stroke:#181818;stroke-width:1.5;" width="198.3496" x="846.418" y="1314.8281"/><text fill="#000000" font-family="sans-serif" font-size="14" lengthAdjust="spacing" textLength="178.3496" x="856.418" y="1337.8232">I'm at the pickup location</text><path d="M796.418,1276.6797 L806.418,1276.6797 C821.418,1276.6797 821.418,1332.9766 836.418,1332.9766 L846.418,1332.9766 " fill="none" style="stroke:#181818;stroke-width:1.0;"/><rect fill="#F1F1F1" height="36.2969" rx="12.5" ry="12.5" style="stroke:#181818;stroke-width:1.5;" width="113.2217" x="846.418" y="1371.125"/><text fill="#000000" font-family="sans-serif" font-size="14" lengthAdjust="spacing" textLength="93.2217" x="856.418" y="1394.1201">Start the ride</text><path d="M796.418,1276.6797 L806.418,1276.6797 C821.418,1276.6797 821.418,1389.2734 836.418,1389.2734 L846.418,1389.2734 " fill="none" style="stroke:#181818;stroke-width:1.0;"/><path d="M662.1807,1248.5313 L672.1807,1248.5313 C687.1807,1248.5313 687.1807,1276.6797 702.1807,1276.6797 L712.1807,1276.6797 " fill="none" style="stroke:#181818;stroke-width:1.0;"/><path d="M501.1875,1332.9766 L511.1875,1332.9766 C526.1875,1332.9766 526.1875,1248.5313 541.1875,1248.5313 L551.1875,1248.5313 " fill="none" style="stroke:#181818;stroke-width:1.0;"/><rect fill="#90EE90" height="36.2969" rx="12.5" ry="12.5" style="stroke:#181818;stroke-width:1.5;" width="156.8691" x="551.1875" y="1540.0156"/><text fill="#000000" font-family="sans-serif" font-size="14" lengthAdjust="spacing" textLength="132.4189" x="561.1875" y="1563.0107">SearchQueryIntent</text><rect fill="#FFBBCC" height="36.2969" rx="12.5" ry="12.5" style="stroke:#181818;stroke-width:1.5;" width="58.5752" x="758.0566" y="1427.4219"/><text fill="#000000" font-family="sans-serif" font-size="14" lengthAdjust="spacing" textLength="34.125" x="768.0566" y="1450.417">Slots</text><rect fill="#F1F1F1" height="36.2969" rx="12.5" ry="12.5" style="stroke:#181818;stroke-width:1.5;" width="233.5068" x="866.6318" y="1427.4219"/><text fill="#000000" font-family="sans-serif" font-size="14" lengthAdjust="spacing" textLength="213.5068" x="876.6318" y="1450.417">query (AMAZON.SearchQuery)</text><path d="M816.6318,1445.5703 L826.6318,1445.5703 C841.6318,1445.5703 841.6318,1445.5703 856.6318,1445.5703 L866.6318,1445.5703 " fill="none" style="stroke:#181818;stroke-width:1.0;"/><path d="M708.0566,1558.1641 L718.0566,1558.1641 C733.0566,1558.1641 733.0566,1445.5703 748.0566,1445.5703 L758.0566,1445.5703 " fill="none" style="stroke:#181818;stroke-width:1.0;"/><rect fill="#FFFFE0" height="36.2969" rx="12.5" ry="12.5" style="stroke:#181818;stroke-width:1.5;" width="84.2373" x="758.0566" y="1568.1641"/><text fill="#000000" font-family="sans-serif" font-size="14" lengthAdjust="spacing" textLength="59.7871" x="768.0566" y="1591.1592">Samples</text><rect fill="#F1F1F1" height="36.2969" rx="12.5" ry="12.5" style="stroke:#181818;stroke-width:1.5;" width="153.1914" x="892.2939" y="1483.7188"/><text fill="#000000" font-family="sans-serif" font-size="14" lengthAdjust="spacing" textLength="133.1914" x="902.2939" y="1506.7139">search for {query}</text><path d="M842.2939,1586.3125 L852.2939,1586.3125 C867.2939,1586.3125 867.2939,1501.8672 882.2939,1501.8672 L892.2939,1501.8672 " fill="none" style="stroke:#181818;stroke-width:1.0;"/><rect fill="#F1F1F1" height="36.2969" rx="12.5" ry="12.5" style="stroke:#181818;stroke-width:1.5;" width="109.2568" x="892.2939" y="1540.0156"/><text fill="#000000" font-family="sans-serif" font-size="14" lengthAdjust="spacing" textLength="89.2568" x="902.2939" y="1563.0107">find {query}</text><path d="M842.2939,1586.3125 L852.2939,1586.3125 C867.2939,1586.3125 867.2939,1558.1641 882.2939,1558.1641 L892.2939,1558.1641 " fill="none" style="stroke:#181818;stroke-width:1.0;"/><rect fill="#F1F1F1" height="36.2969" rx="12.5" ry="12.5" style="stroke:#181818;stroke-width:1.5;" width="176.1055" x="892.2939" y="1596.3125"/><text fill="#000000" font-family="sans-serif" font-size="14" lengthAdjust="spacing" textLength="156.1055" x="902.2939" y="1619.3076">tell me about {query}</text><path d="M842.2939,1586.3125 L852.2939,1586.3125 C867.2939,1586.3125 867.2939,1614.4609 882.2939,1614.4609 L892.2939,1614.4609 " fill="none" style="stroke:#181818;stroke-width:1.0;"/><rect fill="#F1F1F1" height="36.2969" rx="12.5" ry="12.5" style="stroke:#181818;stroke-width:1.5;" width="246.4404" x="892.2939" y="1652.6094"/><text fill="#000000" font-family="sans-serif" font-size="14" lengthAdjust="spacing" textLength="226.4404" x="902.2939" y="1675.6045">give me information on {query}</text><path d="M842.2939,1586.3125 L852.2939,1586.3125 C867.2939,1586.3125 867.2939,1670.7578 882.2939,1670.7578 L892.2939,1670.7578 " fill="none" style="stroke:#181818;stroke-width:1.0;"/><path d="M708.0566,1558.1641 L718.0566,1558.1641 C733.0566,1558.1641 733.0566,1586.3125 748.0566,1586.3125 L758.0566,1586.3125 " fill="none" style="stroke:#181818;stroke-width:1.0;"/><path d="M501.1875,1332.9766 L511.1875,1332.9766 C526.1875,1332.9766 526.1875,1558.1641 541.1875,1558.1641 L551.1875,1558.1641 " fill="none" style="stroke:#181818;stroke-width:1.0;"/><rect fill="#90EE90" height="36.2969" rx="12.5" ry="12.5" style="stroke:#181818;stroke-width:1.5;" width="158.9814" x="551.1875" y="1821.5"/><text fill="#000000" font-family="sans-serif" font-size="14" lengthAdjust="spacing" textLength="134.5313" x="561.1875" y="1844.4951">GlobalSearchIntent</text><rect fill="#FFBBCC" height="36.2969" rx="12.5" ry="12.5" style="stroke:#181818;stroke-width:1.5;" width="58.5752" x="760.1689" y="1708.9063"/><text fill="#000000" font-family="sans-serif" font-size="14" lengthAdjust="spacing" textLength="34.125" x="770.1689" y="1731.9014">Slots</text><rect fill="#F1F1F1" height="36.2969" rx="12.5" ry="12.5" style="stroke:#181818;stroke-width:1.5;" width="233.5068" x="868.7441" y="1708.9063"/><text fill="#000000" font-family="sans-serif" font-size="14" lengthAdjust="spacing" textLength="213.5068" x="878.7441" y="1731.9014">query (AMAZON.SearchQuery)</text><path d="M818.7441,1727.0547 L828.7441,1727.0547 C843.7441,1727.0547 843.7441,1727.0547 858.7441,1727.0547 L868.7441,1727.0547 " fill="none" style="stroke:#181818;stroke-width:1.0;"/><path d="M710.1689,1839.6484 L720.1689,1839.6484 C735.1689,1839.6484 735.1689,1727.0547 750.1689,1727.0547 L760.1689,1727.0547 " fill="none" style="stroke:#181818;stroke-width:1.0;"/><rect fill="#FFFFE0" height="36.2969" rx="12.5" ry="12.5" style="stroke:#181818;stroke-width:1.5;" width="84.2373" x="760.1689" y="1849.6484"/><text fill="#000000" font-family="sans-serif" font-size="14" lengthAdjust="spacing" textLength="59.7871" x="770.1689" y="1872.6436">Samples</text><rect fill="#F1F1F1" height="36.2969" rx="12.5" ry="12.5" style="stroke:#181818;stroke-width:1.5;" width="212.5137" x="894.4063" y="1765.2031"/><text fill="#000000" font-family="sans-serif" font-size="14" lengthAdjust="spacing" textLength="192.5137" x="904.4063" y="1788.1982">search for {query} globally</text><path d="M844.4063,1867.7969 L854.4063,1867.7969 C869.4063,1867.7969 869.4063,1783.3516 884.4063,1783.3516 L894.4063,1783.3516 " fill="none" style="stroke:#181818;stroke-width:1.0;"/><rect fill="#F1F1F1" height="36.2969" rx="12.5" ry="12.5" style="stroke:#181818;stroke-width:1.5;" width="184.1309" x="894.4063" y="1821.5"/><text fill="#000000" font-family="sans-serif" font-size="14" lengthAdjust="spacing" textLength="164.1309" x="904.4063" y="1844.4951">find {query} in general</text><path d="M844.4063,1867.7969 L854.4063,1867.7969 C869.4063,1867.7969 869.4063,1839.6484 884.4063,1839.6484 L894.4063,1839.6484 " fill="none" style="stroke:#181818;stroke-width:1.0;"/><rect fill="#F1F1F1" height="36.2969" rx="12.5" ry="12.5" style="stroke:#181818;stroke-width:1.5;" width="269.8604" x="894.4063" y="1877.7969"/><text fill="#000000" font-family="sans-serif" font-size="14" lengthAdjust="spacing" textLength="249.8604" x="904.4063" y="1900.792">tell me about {query} for everyone</text><path d="M844.4063,1867.7969 L854.4063,1867.7969 C869.4063,1867.7969 869.4063,1895.9453 884.4063,1895.9453 L894.4063,1895.9453 " fill="none" style="stroke:#181818;stroke-width:1.0;"/><rect fill="#F1F1F1" height="36.2969" rx="12.5" ry="12.5" style="stroke:#181818;stroke-width:1.5;" width="305.7627" x="894.4063" y="1934.0938"/><text fill="#000000" font-family="sans-serif" font-size="14" lengthAdjust="spacing" textLength="285.7627" x="904.4063" y="1957.0889">give me information on {query} globally</text><path d="M844.4063,1867.7969 L854.4063,1867.7969 C869.4063,1867.7969 869.4063,1952.2422 884.4063,1952.2422 L894.4063,1952.2422 " fill="none" style="stroke:#181818;stroke-width:1.0;"/><path d="M710.1689,1839.6484 L720.1689,1839.6484 C735.1689,1839.6484 735.1689,1867.7969 750.1689,1867.7969 L760.1689,1867.7969 " fill="none" style="stroke:#181818;stroke-width:1.0;"/><path d="M501.1875,1332.9766 L511.1875,1332.9766 C526.1875,1332.9766 526.1875,1839.6484 541.1875,1839.6484 L551.1875,1839.6484 " fill="none" style="stroke:#181818;stroke-width:1.0;"/><rect fill="#90EE90" height="36.2969" rx="12.5" ry="12.5" style="stroke:#181818;stroke-width:1.5;" width="171.6279" x="551.1875" y="2102.9844"/><text fill="#000000" font-family="sans-serif" font-size="14" lengthAdjust="spacing" textLength="147.1777" x="561.1875" y="2125.9795">UpdatePositionIntent</text><rect fill="#FFBBCC" height="36.2969" rx="12.5" ry="12.5" style="stroke:#181818;stroke-width:1.5;" width="58.5752" x="772.8154" y="1990.3906"/><text fill="#000000" font-family="sans-serif" font-size="14" lengthAdjust="spacing" textLength="34.125" x="782.8154" y="2013.3857">Slots</text><rect fill="#F1F1F1" height="36.2969" rx="12.5" ry="12.5" style="stroke:#181818;stroke-width:1.5;" width="286.4307" x="881.3906" y="1990.3906"/><text fill="#000000" font-family="sans-serif" font-size="14" lengthAdjust="spacing" textLength="266.4307" x="891.3906" y="2013.3857">NewPosition (AMAZON.AlphaNumeric)</text><path d="M831.3906,2008.5391 L841.3906,2008.5391 C856.3906,2008.5391 856.3906,2008.5391 871.3906,2008.5391 L881.3906,2008.5391 " fill="none" style="stroke:#181818;stroke-width:1.0;"/><path d="M722.8154,2121.1328 L732.8154,2121.1328 C747.8154,2121.1328 747.8154,2008.5391 762.8154,2008.5391 L772.8154,2008.5391 " fill="none" style="stroke:#181818;stroke-width:1.0;"/><rect fill="#FFFFE0" height="36.2969" rx="12.5" ry="12.5" style="stroke:#181818;stroke-width:1.5;" width="84.2373" x="772.8154" y="2131.1328"/><text fill="#000000" font-family="sans-serif" font-size="14" lengthAdjust="spacing" textLength="59.7871" x="782.8154" y="2154.1279">Samples</text><rect fill="#F1F1F1" height="36.2969" rx="12.5" ry="12.5" style="stroke:#181818;stroke-width:1.5;" width="281.9189" x="907.0527" y="2046.6875"/><text fill="#000000" font-family="sans-serif" font-size="14" lengthAdjust="spacing" textLength="261.9189" x="917.0527" y="2069.6826">update my position to {NewPosition}</text><path d="M857.0527,2149.2813 L867.0527,2149.2813 C882.0527,2149.2813 882.0527,2064.8359 897.0527,2064.8359 L907.0527,2064.8359 " fill="none" style="stroke:#181818;stroke-width:1.0;"/><rect fill="#F1F1F1" height="36.2969" rx="12.5" ry="12.5" style="stroke:#181818;stroke-width:1.5;" width="284.1133" x="907.0527" y="2102.9844"/><text fill="#000000" font-family="sans-serif" font-size="14" lengthAdjust="spacing" textLength="264.1133" x="917.0527" y="2125.9795">change my position to {NewPosition}</text><path d="M857.0527,2149.2813 L867.0527,2149.2813 C882.0527,2149.2813 882.0527,2121.1328 897.0527,2121.1328 L907.0527,2121.1328 " fill="none" style="stroke:#181818;stroke-width:1.0;"/><rect fill="#F1F1F1" height="36.2969" rx="12.5" ry="12.5" style="stroke:#181818;stroke-width:1.5;" width="254.083" x="907.0527" y="2159.2813"/><text fill="#000000" font-family="sans-serif" font-size="14" lengthAdjust="spacing" textLength="234.083" x="917.0527" y="2182.2764">set my location to {NewPosition}</text><path d="M857.0527,2149.2813 L867.0527,2149.2813 C882.0527,2149.2813 882.0527,2177.4297 897.0527,2177.4297 L907.0527,2177.4297 " fill="none" style="stroke:#181818;stroke-width:1.0;"/><rect fill="#F1F1F1" height="36.2969" rx="12.5" ry="12.5" style="stroke:#181818;stroke-width:1.5;" width="271.6924" x="907.0527" y="2215.5781"/><text fill="#000000" font-family="sans-serif" font-size="14" lengthAdjust="spacing" textLength="251.6924" x="917.0527" y="2238.5732">move my position to {NewPosition}</text><path d="M857.0527,2149.2813 L867.0527,2149.2813 C882.0527,2149.2813 882.0527,2233.7266 897.0527,2233.7266 L907.0527,2233.7266 " fill="none" style="stroke:#181818;stroke-width:1.0;"/><path d="M722.8154,2121.1328 L732.8154,2121.1328 C747.8154,2121.1328 747.8154,2149.2813 762.8154,2149.2813 L772.8154,2149.2813 " fill="none" style="stroke:#181818;stroke-width:1.0;"/><path d="M501.1875,1332.9766 L511.1875,1332.9766 C526.1875,1332.9766 526.1875,2121.1328 541.1875,2121.1328 L551.1875,2121.1328 " fill="none" style="stroke:#181818;stroke-width:1.0;"/><rect fill="#90EE90" height="36.2969" rx="12.5" ry="12.5" style="stroke:#181818;stroke-width:1.5;" width="144.4619" x="551.1875" y="2412.6172"/><text fill="#000000" font-family="sans-serif" font-size="14" lengthAdjust="spacing" textLength="120.0117" x="561.1875" y="2435.6123">CancelRideIntent</text><rect fill="#FFBBCC" height="36.2969" rx="12.5" ry="12.5" style="stroke:#181818;stroke-width:1.5;" width="58.5752" x="745.6494" y="2271.875"/><text fill="#000000" font-family="sans-serif" font-size="14" lengthAdjust="spacing" textLength="34.125" x="755.6494" y="2294.8701">Slots</text><rect fill="#F1F1F1" height="36.2969" rx="12.5" ry="12.5" style="stroke:#181818;stroke-width:1.5;" width="56.5244" x="854.2246" y="2271.875"/><text fill="#000000" font-family="sans-serif" font-size="14" lengthAdjust="spacing" textLength="36.5244" x="864.2246" y="2294.8701">None</text><path d="M804.2246,2290.0234 L814.2246,2290.0234 C829.2246,2290.0234 829.2246,2290.0234 844.2246,2290.0234 L854.2246,2290.0234 " fill="none" style="stroke:#181818;stroke-width:1.0;"/><path d="M695.6494,2430.7656 L705.6494,2430.7656 C720.6494,2430.7656 720.6494,2290.0234 735.6494,2290.0234 L745.6494,2290.0234 " fill="none" style="stroke:#181818;stroke-width:1.0;"/><rect fill="#FFFFE0" height="36.2969" rx="12.5" ry="12.5" style="stroke:#181818;stroke-width:1.5;" width="84.2373" x="745.6494" y="2440.7656"/><text fill="#000000" font-family="sans-serif" font-size="14" lengthAdjust="spacing" textLength="59.7871" x="755.6494" y="2463.7607">Samples</text><rect fill="#F1F1F1" height="36.2969" rx="12.5" ry="12.5" style="stroke:#181818;stroke-width:1.5;" width="123.3184" x="879.8867" y="2328.1719"/><text fill="#000000" font-family="sans-serif" font-size="14" lengthAdjust="spacing" textLength="103.3184" x="889.8867" y="2351.167">cancel my ride</text><path d="M829.8867,2458.9141 L839.8867,2458.9141 C854.8867,2458.9141 854.8867,2346.3203 869.8867,2346.3203 L879.8867,2346.3203 " fill="none" style="stroke:#181818;stroke-width:1.0;"/><rect fill="#F1F1F1" height="36.2969" rx="12.5" ry="12.5" style="stroke:#181818;stroke-width:1.5;" width="124.3711" x="879.8867" y="2384.4688"/><text fill="#000000" font-family="sans-serif" font-size="14" lengthAdjust="spacing" textLength="104.3711" x="889.8867" y="2407.4639">cancel the ride</text><path d="M829.8867,2458.9141 L839.8867,2458.9141 C854.8867,2458.9141 854.8867,2402.6172 869.8867,2402.6172 L879.8867,2402.6172 " fill="none" style="stroke:#181818;stroke-width:1.0;"/><rect fill="#F1F1F1" height="36.2969" rx="12.5" ry="12.5" style="stroke:#181818;stroke-width:1.5;" width="116.2979" x="879.8867" y="2440.7656"/><text fill="#000000" font-family="sans-serif" font-size="14" lengthAdjust="spacing" textLength="96.2979" x="889.8867" y="2463.7607">abort the ride</text><path d="M829.8867,2458.9141 L839.8867,2458.9141 C854.8867,2458.9141 854.8867,2458.9141 869.8867,2458.9141 L879.8867,2458.9141 " fill="none" style="stroke:#181818;stroke-width:1.0;"/><rect fill="#F1F1F1" height="36.2969" rx="12.5" ry="12.5" style="stroke:#181818;stroke-width:1.5;" width="164.7646" x="879.8867" y="2497.0625"/><text fill="#000000" font-family="sans-serif" font-size="14" lengthAdjust="spacing" textLength="144.7646" x="889.8867" y="2520.0576">stop the current ride</text><path d="M829.8867,2458.9141 L839.8867,2458.9141 C854.8867,2458.9141 854.8867,2515.2109 869.8867,2515.2109 L879.8867,2515.2109 " fill="none" style="stroke:#181818;stroke-width:1.0;"/><rect fill="#F1F1F1" height="36.2969" rx="12.5" ry="12.5" style="stroke:#181818;stroke-width:1.5;" width="152.4531" x="879.8867" y="2553.3594"/><text fill="#000000" font-family="sans-serif" font-size="14" lengthAdjust="spacing" textLength="132.4531" x="889.8867" y="2576.3545">cancel current ride</text><path d="M829.8867,2458.9141 L839.8867,2458.9141 C854.8867,2458.9141 854.8867,2571.5078 869.8867,2571.5078 L879.8867,2571.5078 " fill="none" style="stroke:#181818;stroke-width:1.0;"/><path d="M695.6494,2430.7656 L705.6494,2430.7656 C720.6494,2430.7656 720.6494,2458.9141 735.6494,2458.9141 L745.6494,2458.9141 " fill="none" style="stroke:#181818;stroke-width:1.0;"/><path d="M501.1875,1332.9766 L511.1875,1332.9766 C526.1875,1332.9766 526.1875,2430.7656 541.1875,2430.7656 L551.1875,2430.7656 " fill="none" style="stroke:#181818;stroke-width:1.0;"/><path d="M377.9766,1304.8281 L387.9766,1304.8281 C402.9766,1304.8281 402.9766,1332.9766 417.9766,1332.9766 L427.9766,1332.9766 " fill="none" style="stroke:#181818;stroke-width:1.0;"/><path d="M187.9512,1304.8281 L197.9512,1304.8281 C212.9512,1304.8281 212.9512,1304.8281 227.9512,1304.8281 L237.9512,1304.8281 " fill="none" style="stroke:#181818;stroke-width:1.0;"/><!--SRC=[nLPjRzem4FwUNt7IFgoDLBPLtOigLBN0wCk0iZ8wQTzCSYGMZfqwJb1KyTzdcoIy21WjbVQ9SFVSSoy-d-yoKKIgY78_8h5JJrJEyC8f_hSe2II9uDa1g56ka2lx3T0WtYIG8kL-Kp0XWT4WL854v5ezC_242PLiGRzhjnkDPhE2aYXccEoYpf4nCIqDAC-4HnGLV9VDYALOMZ32WvG4s1K-ijqvaDmQpPpwXw8QZWjD8c60CgCUGg_J1ylZk2vq2kAv1Ehr5KyN5nhZmkqYtXw9KACM6SmXBdZQGpBtKDYOSYUR6LsuwbxzkU_LceHxoEPOIsi-2emBWwAmzNfHubBZGazmN66wGHQ_1Sz0YSDuRinH_nQI-Q-W2OrnzKTCWKY4NAIbA24vX1IcXdvLLXdH5RdXsm2lt9HfzqX60wBmHaJu5cLi4yP6ka4Fudh0fnGJzK1ztC1WBwYsDxyBwpxr9cdSAVlrg8ZdYiKXwQKHIkeTbzYM9gVS0lSns1LqGuW9490crB4KUkQi1Z839U1vWyDPoN2D2lJTEeZZ5ZYYVnZ7Sj5VmG1DmSTKHYywjEh8TzQuO8Oej_ajaWv9fWid9SrCyie0OXipi2AsTOgvkc9u7nap5U8sku5vPIoWygpdAP5U-3D5cM_jyitfFXcRgjEMUFPejCIYOQm7_hFbgGvkh1-zTPdI5zrsrKYaQbqPw7eP9UMQBPgtltcIbb1mpSI8i7c8_pLB26maBD-Khau10kGe2TkPkIN4J7zM3VUlCgpwXM7iwodP5mark1TMf8VJqlArSoQr_cs7bqpcEYunLyVhXVhXtG-QeBqqPTTlnKKYsuCGvg-wcG0lBT1USy2pzEjZe92kt54jrkU_VdDDmlgLjq8lbT94k85fHNM9UgCijaodhrSQDUnsG7TIOihmgNRwyVIizdM4Ydm-6l895rCEdeXYoX0KZV3OERhkTo0HgTGhc4yJ9UaeDJKxTkv8Hk0XvGPt3lSnyhlMZr80ttb6fU2H3iMvU-mk05_EJXfKsRKE9JnsdHQEISgKjl24Jtbm3iDVxPDlJhdZdODURvjwOLGorxh1Nm00]--></g></svg>