<?xml version="1.0" encoding="UTF-8" standalone="no"?>
<!DOCTYPE svg PUBLIC "-//W3C//DTD SVG 1.1//EN"
 "http://www.w3.org/Graphics/SVG/1.1/DTD/svg11.dtd">
<!-- Generated by graphviz version 2.43.0 (0)
 -->
<!-- Title: %3 Pages: 1 -->
<svg width="1163pt" height="1478pt"
 viewBox="0.00 0.00 1162.84 1477.55" xmlns="http://www.w3.org/2000/svg" xmlns:xlink="http://www.w3.org/1999/xlink">
<g id="graph0" class="graph" transform="scale(1 1) rotate(0) translate(4 1473.55)">
<title>%3</title>
<polygon fill="white" stroke="transparent" points="-4,4 -4,-1473.55 1158.84,-1473.55 1158.84,4 -4,4"/>
<text text-anchor="middle" x="577.42" y="-67.8" font-family="Times,serif" font-size="14.00">Namespaces:</text>
<text text-anchor="middle" x="577.42" y="-52.8" font-family="Times,serif" font-size="14.00">rdf: http://www.w3.org/1999/02/22&#45;rdf&#45;syntax&#45;ns#</text>
<text text-anchor="middle" x="577.42" y="-37.8" font-family="Times,serif" font-size="14.00">rdfs: http://www.w3.org/2000/01/rdf&#45;schema#</text>
<text text-anchor="middle" x="577.42" y="-22.8" font-family="Times,serif" font-size="14.00">xsd: http://www.w3.org/2001/XMLSchema#</text>
<text text-anchor="middle" x="577.42" y="-7.8" font-family="Times,serif" font-size="14.00">carshare: http://example.org/carshare#</text>
<!-- Rcarshare:clientBob -->
<g id="node1" class="node">
<title>Rcarshare:clientBob</title>
<ellipse fill="none" stroke="blue" cx="507.98" cy="-1311.05" rx="98.28" ry="18"/>
<text text-anchor="middle" x="507.98" y="-1307.35" font-family="Times,serif" font-size="14.00">carshare:clientBob</text>
</g>
<!-- Rcarshare:Client -->
<g id="node2" class="node">
<title>Rcarshare:Client</title>
<ellipse fill="none" stroke="blue" cx="1017.05" cy="-1396.05" rx="81.79" ry="18"/>
<text text-anchor="middle" x="1017.05" y="-1392.35" font-family="Times,serif" font-size="14.00">carshare:Client</text>
</g>
<!-- Rcarshare:clientBob&#45;&gt;Rcarshare:Client -->
<g id="edge1" class="edge">
<title>Rcarshare:clientBob&#45;&gt;Rcarshare:Client</title>
<path fill="none" stroke="black" d="M556.42,-1326.72C582.16,-1334.71 614.69,-1344 644.27,-1350.05 741.07,-1369.87 853.92,-1382.36 929.68,-1389.25"/>
<polygon fill="black" stroke="black" points="929.38,-1392.74 939.65,-1390.14 930,-1385.77 929.38,-1392.74"/>
<text text-anchor="middle" x="752.77" y="-1384.85" font-family="Times,serif" font-size="14.00">rdf:type</text>
</g>
<!-- LBob456 -->
<g id="node3" class="node">
<title>LBob456</title>
<polygon fill="none" stroke="black" points="981.55,-1323.05 981.55,-1359.05 1052.55,-1359.05 1052.55,-1323.05 981.55,-1323.05"/>
<text text-anchor="middle" x="1017.05" y="-1337.35" font-family="Times,serif" font-size="14.00">Bob456</text>
</g>
<!-- Rcarshare:clientBob&#45;&gt;LBob456 -->
<g id="edge2" class="edge">
<title>Rcarshare:clientBob&#45;&gt;LBob456</title>
<path fill="none" stroke="black" d="M601.69,-1316.54C711.18,-1323.02 888.82,-1333.53 971.31,-1338.41"/>
<polygon fill="black" stroke="black" points="971.18,-1341.9 981.36,-1339 971.59,-1334.92 971.18,-1341.9"/>
<text text-anchor="middle" x="752.77" y="-1334.85" font-family="Times,serif" font-size="14.00">carshare:clientID</text>
</g>
<!-- LG -->
<g id="node4" class="node">
<title>LG</title>
<polygon fill="none" stroke="black" points="990.05,-1147.05 990.05,-1183.05 1044.05,-1183.05 1044.05,-1147.05 990.05,-1147.05"/>
<text text-anchor="middle" x="1017.05" y="-1161.35" font-family="Times,serif" font-size="14.00">G</text>
</g>
<!-- Rcarshare:clientBob&#45;&gt;LG -->
<g id="edge3" class="edge">
<title>Rcarshare:clientBob&#45;&gt;LG</title>
<path fill="none" stroke="black" d="M528.32,-1293.12C553.13,-1271.25 598.46,-1234.98 644.27,-1217.05 760.64,-1171.5 911.25,-1165.01 979.53,-1164.63"/>
<polygon fill="black" stroke="black" points="979.77,-1168.13 989.77,-1164.61 979.76,-1161.13 979.77,-1168.13"/>
<text text-anchor="middle" x="752.77" y="-1220.85" font-family="Times,serif" font-size="14.00">carshare:position</text>
</g>
<!-- L45|Datatype: xsd:integer -->
<g id="node5" class="node">
<title>L45|Datatype: xsd:integer</title>
<polygon fill="none" stroke="black" points="931.05,-1258.05 931.05,-1304.05 1103.05,-1304.05 1103.05,-1258.05 931.05,-1258.05"/>
<text text-anchor="middle" x="1017.05" y="-1288.85" font-family="Times,serif" font-size="14.00">45</text>
<polyline fill="none" stroke="black" points="931.05,-1281.05 1103.05,-1281.05 "/>
<text text-anchor="middle" x="1017.05" y="-1265.85" font-family="Times,serif" font-size="14.00">Datatype: xsd:integer</text>
</g>
<!-- Rcarshare:clientBob&#45;&gt;L45|Datatype: xsd:integer -->
<g id="edge4" class="edge">
<title>Rcarshare:clientBob&#45;&gt;L45|Datatype: xsd:integer</title>
<path fill="none" stroke="black" d="M597.37,-1303.48C612.99,-1302.25 629.1,-1301.06 644.27,-1300.05 738.04,-1293.85 845.24,-1288.56 920.35,-1285.15"/>
<polygon fill="black" stroke="black" points="920.9,-1288.63 930.73,-1284.68 920.59,-1281.64 920.9,-1288.63"/>
<text text-anchor="middle" x="752.77" y="-1303.85" font-family="Times,serif" font-size="14.00">carshare:age</text>
</g>
<!-- Lmale -->
<g id="node6" class="node">
<title>Lmale</title>
<polygon fill="none" stroke="black" points="990.05,-1203.05 990.05,-1239.05 1044.05,-1239.05 1044.05,-1203.05 990.05,-1203.05"/>
<text text-anchor="middle" x="1017.05" y="-1217.35" font-family="Times,serif" font-size="14.00">male</text>
</g>
<!-- Rcarshare:clientBob&#45;&gt;Lmale -->
<g id="edge5" class="edge">
<title>Rcarshare:clientBob&#45;&gt;Lmale</title>
<path fill="none" stroke="black" d="M553.55,-1295.08C579.69,-1286.26 613.51,-1275.76 644.27,-1269.05 765.59,-1242.6 912.58,-1228.91 979.59,-1223.66"/>
<polygon fill="black" stroke="black" points="979.94,-1227.14 989.64,-1222.89 979.4,-1220.16 979.94,-1227.14"/>
<text text-anchor="middle" x="752.77" y="-1272.85" font-family="Times,serif" font-size="14.00">carshare:gender</text>
</g>
<!-- Lstandard -->
<g id="node7" class="node">
<title>Lstandard</title>
<polygon fill="none" stroke="black" points="977.05,-1433.05 977.05,-1469.05 1057.05,-1469.05 1057.05,-1433.05 977.05,-1433.05"/>
<text text-anchor="middle" x="1017.05" y="-1447.35" font-family="Times,serif" font-size="14.00">standard</text>
</g>
<!-- Rcarshare:clientBob&#45;&gt;Lstandard -->
<g id="edge6" class="edge">
<title>Rcarshare:clientBob&#45;&gt;Lstandard</title>
<path fill="none" stroke="black" d="M529.37,-1328.75C554.54,-1349.52 599.52,-1383.26 644.27,-1400.05 754.29,-1441.35 893.85,-1449.77 966.7,-1451.14"/>
<polygon fill="black" stroke="black" points="966.9,-1454.65 976.95,-1451.3 967,-1447.65 966.9,-1454.65"/>
<text text-anchor="middle" x="752.77" y="-1447.85" font-family="Times,serif" font-size="14.00">carshare:accountType</text>
</g>
<!-- Rcarshare:vehicle1 -->
<g id="node8" class="node">
<title>Rcarshare:vehicle1</title>
<ellipse fill="none" stroke="blue" cx="507.98" cy="-690.05" rx="92.88" ry="18"/>
<text text-anchor="middle" x="507.98" y="-686.35" font-family="Times,serif" font-size="14.00">carshare:vehicle1</text>
</g>
<!-- Rcarshare:Vehicle -->
<g id="node9" class="node">
<title>Rcarshare:Vehicle</title>
<ellipse fill="none" stroke="blue" cx="1017.05" cy="-699.05" rx="87.18" ry="18"/>
<text text-anchor="middle" x="1017.05" y="-695.35" font-family="Times,serif" font-size="14.00">carshare:Vehicle</text>
</g>
<!-- Rcarshare:vehicle1&#45;&gt;Rcarshare:Vehicle -->
<g id="edge7" class="edge">
<title>Rcarshare:vehicle1&#45;&gt;Rcarshare:Vehicle</title>
<path fill="none" stroke="black" d="M600.97,-689.09C672.07,-688.64 772.92,-688.65 861.27,-691.05 881.28,-691.6 902.75,-692.5 923.12,-693.51"/>
<polygon fill="black" stroke="black" points="923.18,-697.02 933.34,-694.03 923.53,-690.03 923.18,-697.02"/>
<text text-anchor="middle" x="752.77" y="-694.85" font-family="Times,serif" font-size="14.00">rdf:type</text>
</g>
<!-- LVehicle1 -->
<g id="node10" class="node">
<title>LVehicle1</title>
<polygon fill="none" stroke="black" points="978.55,-626.05 978.55,-662.05 1055.55,-662.05 1055.55,-626.05 978.55,-626.05"/>
<text text-anchor="middle" x="1017.05" y="-640.35" font-family="Times,serif" font-size="14.00">Vehicle1</text>
</g>
<!-- Rcarshare:vehicle1&#45;&gt;LVehicle1 -->
<g id="edge8" class="edge">
<title>Rcarshare:vehicle1&#45;&gt;LVehicle1</title>
<path fill="none" stroke="black" d="M579.76,-678.54C600.51,-675.45 623.26,-672.34 644.27,-670.05 760.21,-657.45 897.19,-649.7 968.11,-646.22"/>
<polygon fill="black" stroke="black" points="968.68,-649.7 978.5,-645.72 968.34,-642.71 968.68,-649.7"/>
<text text-anchor="middle" x="752.77" y="-673.85" font-family="Times,serif" font-size="14.00">carshare:vehicleID</text>
</g>
<!-- LA -->
<g id="node11" class="node">
<title>LA</title>
<polygon fill="none" stroke="black" points="990.05,-758.05 990.05,-794.05 1044.05,-794.05 1044.05,-758.05 990.05,-758.05"/>
<text text-anchor="middle" x="1017.05" y="-772.35" font-family="Times,serif" font-size="14.00">A</text>
</g>
<!-- Rcarshare:vehicle1&#45;&gt;LA -->
<g id="edge9" class="edge">
<title>Rcarshare:vehicle1&#45;&gt;LA</title>
<path fill="none" stroke="black" d="M542.82,-706.8C569.65,-719.28 608.46,-735.56 644.27,-744.05 676.34,-751.66 892.38,-767.39 979.62,-773.53"/>
<polygon fill="black" stroke="black" points="979.62,-777.04 989.84,-774.24 980.11,-770.05 979.62,-777.04"/>
<text text-anchor="middle" x="752.77" y="-768.85" font-family="Times,serif" font-size="14.00">carshare:vehiclePosition</text>
</g>
<!-- Lavailable -->
<g id="node12" class="node">
<title>Lavailable</title>
<polygon fill="none" stroke="black" points="977.05,-571.05 977.05,-607.05 1057.05,-607.05 1057.05,-571.05 977.05,-571.05"/>
<text text-anchor="middle" x="1017.05" y="-585.35" font-family="Times,serif" font-size="14.00">available</text>
</g>
<!-- Rcarshare:vehicle1&#45;&gt;Lavailable -->
<g id="edge10" class="edge">
<title>Rcarshare:vehicle1&#45;&gt;Lavailable</title>
<path fill="none" stroke="black" d="M588.05,-680.86C601.62,-676.84 614.96,-671.14 626.27,-663.05 638.6,-654.23 631.48,-642.21 644.27,-634.05 744.39,-570.18 890.91,-574.54 966.65,-582.29"/>
<polygon fill="black" stroke="black" points="966.53,-585.8 976.85,-583.4 967.29,-578.84 966.53,-585.8"/>
<text text-anchor="middle" x="752.77" y="-637.85" font-family="Times,serif" font-size="14.00">carshare:status</text>
</g>
<!-- Rcarshare:A_B -->
<g id="node13" class="node">
<title>Rcarshare:A_B</title>
<ellipse fill="none" stroke="blue" cx="507.98" cy="-918.05" rx="71.49" ry="18"/>
<text text-anchor="middle" x="507.98" y="-914.35" font-family="Times,serif" font-size="14.00">carshare:A_B</text>
</g>
<!-- Rcarshare:A_B&#45;&gt;LA -->
<g id="edge13" class="edge">
<title>Rcarshare:A_B&#45;&gt;LA</title>
<path fill="none" stroke="black" d="M523.84,-900.2C546.68,-874.22 593.14,-826.83 644.27,-806.05 674.82,-793.63 892.25,-781.98 979.73,-777.74"/>
<polygon fill="black" stroke="black" points="980.16,-781.22 989.98,-777.25 979.82,-774.23 980.16,-781.22"/>
<text text-anchor="middle" x="752.77" y="-809.85" font-family="Times,serif" font-size="14.00">carshare:startLocation</text>
</g>
<!-- Rcarshare:RoadSegment -->
<g id="node14" class="node">
<title>Rcarshare:RoadSegment</title>
<ellipse fill="none" stroke="blue" cx="1017.05" cy="-979.05" rx="118.88" ry="18"/>
<text text-anchor="middle" x="1017.05" y="-975.35" font-family="Times,serif" font-size="14.00">carshare:RoadSegment</text>
</g>
<!-- Rcarshare:A_B&#45;&gt;Rcarshare:RoadSegment -->
<g id="edge11" class="edge">
<title>Rcarshare:A_B&#45;&gt;Rcarshare:RoadSegment</title>
<path fill="none" stroke="black" d="M572.96,-925.78C595.49,-928.46 621,-931.44 644.27,-934.05 740.65,-944.86 765.02,-945.12 861.27,-957.05 880.74,-959.47 901.55,-962.27 921.4,-965.06"/>
<polygon fill="black" stroke="black" points="920.98,-968.53 931.37,-966.46 921.96,-961.6 920.98,-968.53"/>
<text text-anchor="middle" x="752.77" y="-960.85" font-family="Times,serif" font-size="14.00">rdf:type</text>
</g>
<!-- LA_B -->
<g id="node15" class="node">
<title>LA_B</title>
<polygon fill="none" stroke="black" points="990.05,-900.05 990.05,-936.05 1044.05,-936.05 1044.05,-900.05 990.05,-900.05"/>
<text text-anchor="middle" x="1017.05" y="-914.35" font-family="Times,serif" font-size="14.00">A_B</text>
</g>
<!-- Rcarshare:A_B&#45;&gt;LA_B -->
<g id="edge12" class="edge">
<title>Rcarshare:A_B&#45;&gt;LA_B</title>
<path fill="none" stroke="black" d="M579.48,-918.05C689.09,-918.05 896.42,-918.05 979.89,-918.05"/>
<polygon fill="black" stroke="black" points="979.9,-921.55 989.9,-918.05 979.9,-914.55 979.9,-921.55"/>
<text text-anchor="middle" x="752.77" y="-921.85" font-family="Times,serif" font-size="14.00">carshare:segmentID</text>
</g>
<!-- LB -->
<g id="node16" class="node">
<title>LB</title>
<polygon fill="none" stroke="black" points="990.05,-824.05 990.05,-860.05 1044.05,-860.05 1044.05,-824.05 990.05,-824.05"/>
<text text-anchor="middle" x="1017.05" y="-838.35" font-family="Times,serif" font-size="14.00">B</text>
</g>
<!-- Rcarshare:A_B&#45;&gt;LB -->
<g id="edge14" class="edge">
<title>Rcarshare:A_B&#45;&gt;LB</title>
<path fill="none" stroke="black" d="M531.38,-900.92C557.04,-882.48 601.12,-854.27 644.27,-843.05 763.75,-811.98 912.23,-826.78 979.68,-836.25"/>
<polygon fill="black" stroke="black" points="979.39,-839.75 989.79,-837.72 980.4,-832.82 979.39,-839.75"/>
<text text-anchor="middle" x="752.77" y="-846.85" font-family="Times,serif" font-size="14.00">carshare:endLocation</text>
</g>
<!-- Ls -->
<g id="node17" class="node">
<title>Ls</title>
<polygon fill="none" stroke="black" points="990.05,-1022.05 990.05,-1058.05 1044.05,-1058.05 1044.05,-1022.05 990.05,-1022.05"/>
<text text-anchor="middle" x="1017.05" y="-1036.35" font-family="Times,serif" font-size="14.00">s</text>
</g>
<!-- Rcarshare:A_B&#45;&gt;Ls -->
<g id="edge15" class="edge">
<title>Rcarshare:A_B&#45;&gt;Ls</title>
<path fill="none" stroke="black" d="M527.8,-935.64C552.43,-957.45 597.92,-993.72 644.27,-1010.05 659.93,-1015.57 889.2,-1031.51 979.7,-1037.62"/>
<polygon fill="black" stroke="black" points="979.56,-1041.12 989.77,-1038.3 980.03,-1034.14 979.56,-1041.12"/>
<text text-anchor="middle" x="752.77" y="-1033.85" font-family="Times,serif" font-size="14.00">carshare:movementType</text>
</g>
<!-- Rcarshare:B_G -->
<g id="node18" class="node">
<title>Rcarshare:B_G</title>
<ellipse fill="none" stroke="blue" cx="507.98" cy="-1070.05" rx="72.59" ry="18"/>
<text text-anchor="middle" x="507.98" y="-1066.35" font-family="Times,serif" font-size="14.00">carshare:B_G</text>
</g>
<!-- Rcarshare:B_G&#45;&gt;LG -->
<g id="edge19" class="edge">
<title>Rcarshare:B_G&#45;&gt;LG</title>
<path fill="none" stroke="black" d="M547.17,-1085.29C573.95,-1095.42 610.81,-1108.24 644.27,-1116.05 676.55,-1123.59 892.89,-1150.16 979.91,-1160.7"/>
<polygon fill="black" stroke="black" points="979.51,-1164.18 989.86,-1161.9 980.35,-1157.23 979.51,-1164.18"/>
<text text-anchor="middle" x="752.77" y="-1149.85" font-family="Times,serif" font-size="14.00">carshare:endLocation</text>
</g>
<!-- Rcarshare:B_G&#45;&gt;Rcarshare:RoadSegment -->
<g id="edge16" class="edge">
<title>Rcarshare:B_G&#45;&gt;Rcarshare:RoadSegment</title>
<path fill="none" stroke="black" d="M531.94,-1052.91C557.74,-1034.75 601.61,-1007.07 644.27,-995.05 688.58,-982.57 798.76,-979.03 887.75,-978.34"/>
<polygon fill="black" stroke="black" points="887.97,-981.84 897.94,-978.27 887.92,-974.84 887.97,-981.84"/>
<text text-anchor="middle" x="752.77" y="-998.85" font-family="Times,serif" font-size="14.00">rdf:type</text>
</g>
<!-- Rcarshare:B_G&#45;&gt;LB -->
<g id="edge18" class="edge">
<title>Rcarshare:B_G&#45;&gt;LB</title>
<path fill="none" stroke="black" d="M529.74,-1052.49C555.38,-1029.88 598.93,-988.33 626.27,-945.05 637.99,-926.49 627.13,-912.77 644.27,-899.05 670.29,-878.22 891.35,-854.36 979.74,-845.55"/>
<polygon fill="black" stroke="black" points="980.24,-849.02 989.84,-844.55 979.55,-842.05 980.24,-849.02"/>
<text text-anchor="middle" x="752.77" y="-902.85" font-family="Times,serif" font-size="14.00">carshare:startLocation</text>
</g>
<!-- Rcarshare:B_G&#45;&gt;Ls -->
<g id="edge20" class="edge">
<title>Rcarshare:B_G&#45;&gt;Ls</title>
<path fill="none" stroke="black" d="M578.95,-1065.91C688.38,-1059.44 896.14,-1047.15 979.8,-1042.2"/>
<polygon fill="black" stroke="black" points="980.06,-1045.69 989.84,-1041.6 979.65,-1038.7 980.06,-1045.69"/>
<text text-anchor="middle" x="752.77" y="-1065.85" font-family="Times,serif" font-size="14.00">carshare:movementType</text>
</g>
<!-- LB_G -->
<g id="node19" class="node">
<title>LB_G</title>
<polygon fill="none" stroke="black" points="990.05,-1090.05 990.05,-1126.05 1044.05,-1126.05 1044.05,-1090.05 990.05,-1090.05"/>
<text text-anchor="middle" x="1017.05" y="-1104.35" font-family="Times,serif" font-size="14.00">B_G</text>
</g>
<!-- Rcarshare:B_G&#45;&gt;LB_G -->
<g id="edge17" class="edge">
<title>Rcarshare:B_G&#45;&gt;LB_G</title>
<path fill="none" stroke="black" d="M577.1,-1075.71C598.58,-1077.46 622.41,-1079.37 644.27,-1081.05 767.12,-1090.51 912.89,-1100.83 979.53,-1105.51"/>
<polygon fill="black" stroke="black" points="979.68,-1109.02 989.9,-1106.23 980.17,-1102.04 979.68,-1109.02"/>
<text text-anchor="middle" x="752.77" y="-1100.85" font-family="Times,serif" font-size="14.00">carshare:segmentID</text>
</g>
<!-- Rcarshare:trip1 -->
<g id="node20" class="node">
<title>Rcarshare:trip1</title>
<ellipse fill="none" stroke="blue" cx="77.34" cy="-368.05" rx="77.19" ry="18"/>
<text text-anchor="middle" x="77.34" y="-364.35" font-family="Times,serif" font-size="14.00">carshare:trip1</text>
</g>
<!-- Rcarshare:TripRequest -->
<g id="node21" class="node">
<title>Rcarshare:TripRequest</title>
<ellipse fill="none" stroke="blue" cx="507.98" cy="-636.05" rx="111.28" ry="18"/>
<text text-anchor="middle" x="507.98" y="-632.35" font-family="Times,serif" font-size="14.00">carshare:TripRequest</text>
</g>
<!-- Rcarshare:trip1&#45;&gt;Rcarshare:TripRequest -->
<g id="edge21" class="edge">
<title>Rcarshare:trip1&#45;&gt;Rcarshare:TripRequest</title>
<path fill="none" stroke="black" d="M79.26,-386.06C82.65,-432.03 98.58,-553.97 172.69,-609.05 246,-663.54 354.99,-661.39 428.4,-651.55"/>
<polygon fill="black" stroke="black" points="429.11,-654.99 438.52,-650.12 428.12,-648.05 429.11,-654.99"/>
<text text-anchor="middle" x="272.19" y="-660.85" font-family="Times,serif" font-size="14.00">rdf:type</text>
</g>
<!-- LTrip123 -->
<g id="node22" class="node">
<title>LTrip123</title>
<polygon fill="none" stroke="black" points="471.48,-563.05 471.48,-599.05 544.48,-599.05 544.48,-563.05 471.48,-563.05"/>
<text text-anchor="middle" x="507.98" y="-577.35" font-family="Times,serif" font-size="14.00">Trip123</text>
</g>
<!-- Rcarshare:trip1&#45;&gt;LTrip123 -->
<g id="edge22" class="edge">
<title>Rcarshare:trip1&#45;&gt;LTrip123</title>
<path fill="none" stroke="black" d="M82.79,-386.04C92.49,-421.17 119.11,-498.66 172.69,-535.05 260.84,-594.93 392.51,-592.94 461.34,-586.77"/>
<polygon fill="black" stroke="black" points="461.81,-590.24 471.42,-585.8 461.13,-583.27 461.81,-590.24"/>
<text text-anchor="middle" x="272.19" y="-593.85" font-family="Times,serif" font-size="14.00">carshare:requestID</text>
</g>
<!-- L2024&#45;04&#45;01T10:00:00Z|Datatype: xsd:dateTime -->
<g id="node23" class="node">
<title>L2024&#45;04&#45;01T10:00:00Z|Datatype: xsd:dateTime</title>
<polygon fill="none" stroke="black" points="414.48,-498.05 414.48,-544.05 601.48,-544.05 601.48,-498.05 414.48,-498.05"/>
<text text-anchor="middle" x="507.98" y="-528.85" font-family="Times,serif" font-size="14.00">2024&#45;04&#45;01T10:00:00Z</text>
<polyline fill="none" stroke="black" points="414.48,-521.05 601.48,-521.05 "/>
<text text-anchor="middle" x="507.98" y="-505.85" font-family="Times,serif" font-size="14.00">Datatype: xsd:dateTime</text>
</g>
<!-- Rcarshare:trip1&#45;&gt;L2024&#45;04&#45;01T10:00:00Z|Datatype: xsd:dateTime -->
<g id="edge23" class="edge">
<title>Rcarshare:trip1&#45;&gt;L2024&#45;04&#45;01T10:00:00Z|Datatype: xsd:dateTime</title>
<path fill="none" stroke="black" d="M90.75,-385.85C106.94,-407.59 137.4,-443.72 172.69,-462.05 244.46,-499.34 335.36,-513.61 404.25,-518.82"/>
<polygon fill="black" stroke="black" points="404.03,-522.31 414.25,-519.52 404.52,-515.33 404.03,-522.31"/>
<text text-anchor="middle" x="272.19" y="-519.85" font-family="Times,serif" font-size="14.00">carshare:startTime</text>
</g>
<!-- L2024&#45;04&#45;01T11:00:00Z|Datatype: xsd:dateTime -->
<g id="node24" class="node">
<title>L2024&#45;04&#45;01T11:00:00Z|Datatype: xsd:dateTime</title>
<polygon fill="none" stroke="black" points="414.48,-433.05 414.48,-479.05 601.48,-479.05 601.48,-433.05 414.48,-433.05"/>
<text text-anchor="middle" x="507.98" y="-463.85" font-family="Times,serif" font-size="14.00">2024&#45;04&#45;01T11:00:00Z</text>
<polyline fill="none" stroke="black" points="414.48,-456.05 601.48,-456.05 "/>
<text text-anchor="middle" x="507.98" y="-440.85" font-family="Times,serif" font-size="14.00">Datatype: xsd:dateTime</text>
</g>
<!-- Rcarshare:trip1&#45;&gt;L2024&#45;04&#45;01T11:00:00Z|Datatype: xsd:dateTime -->
<g id="edge24" class="edge">
<title>Rcarshare:trip1&#45;&gt;L2024&#45;04&#45;01T11:00:00Z|Datatype: xsd:dateTime</title>
<path fill="none" stroke="black" d="M112.62,-384.12C130.23,-391.79 152.24,-400.49 172.69,-406.05 248.9,-426.79 337.37,-439.54 404.15,-446.98"/>
<polygon fill="black" stroke="black" points="403.94,-450.47 414.26,-448.08 404.7,-443.51 403.94,-450.47"/>
<text text-anchor="middle" x="272.19" y="-446.85" font-family="Times,serif" font-size="14.00">carshare:endTime</text>
</g>
<!-- Lsunny -->
<g id="node25" class="node">
<title>Lsunny</title>
<polygon fill="none" stroke="black" points="478.48,-378.05 478.48,-414.05 537.48,-414.05 537.48,-378.05 478.48,-378.05"/>
<text text-anchor="middle" x="507.98" y="-392.35" font-family="Times,serif" font-size="14.00">sunny</text>
</g>
<!-- Rcarshare:trip1&#45;&gt;Lsunny -->
<g id="edge25" class="edge">
<title>Rcarshare:trip1&#45;&gt;Lsunny</title>
<path fill="none" stroke="black" d="M152.03,-372.87C243.55,-378.84 396.34,-388.83 467.84,-393.5"/>
<polygon fill="black" stroke="black" points="467.98,-397.01 478.19,-394.17 468.44,-390.03 467.98,-397.01"/>
<text text-anchor="middle" x="272.19" y="-390.85" font-family="Times,serif" font-size="14.00">carshare:weather</text>
</g>
<!-- Llight -->
<g id="node26" class="node">
<title>Llight</title>
<polygon fill="none" stroke="black" points="480.98,-323.05 480.98,-359.05 534.98,-359.05 534.98,-323.05 480.98,-323.05"/>
<text text-anchor="middle" x="507.98" y="-337.35" font-family="Times,serif" font-size="14.00">light</text>
</g>
<!-- Rcarshare:trip1&#45;&gt;Llight -->
<g id="edge26" class="edge">
<title>Rcarshare:trip1&#45;&gt;Llight</title>
<path fill="none" stroke="black" d="M148.64,-361.02C156.74,-360.31 164.89,-359.63 172.69,-359.05 280.95,-350.98 409.19,-345.1 470.62,-342.52"/>
<polygon fill="black" stroke="black" points="471.1,-346 480.95,-342.09 470.81,-339.01 471.1,-346"/>
<text text-anchor="middle" x="272.19" y="-362.85" font-family="Times,serif" font-size="14.00">carshare:traffic</text>
</g>
<!-- Lnone -->
<g id="node27" class="node">
<title>Lnone</title>
<polygon fill="none" stroke="black" points="480.98,-268.05 480.98,-304.05 534.98,-304.05 534.98,-268.05 480.98,-268.05"/>
<text text-anchor="middle" x="507.98" y="-282.35" font-family="Times,serif" font-size="14.00">none</text>
</g>
<!-- Rcarshare:trip1&#45;&gt;Lnone -->
<g id="edge27" class="edge">
<title>Rcarshare:trip1&#45;&gt;Lnone</title>
<path fill="none" stroke="black" d="M111.65,-351.75C129.38,-343.73 151.79,-334.61 172.69,-329.05 278.8,-300.83 408.96,-290.88 470.9,-287.58"/>
<polygon fill="black" stroke="black" points="471.14,-291.07 480.95,-287.07 470.78,-284.08 471.14,-291.07"/>
<text text-anchor="middle" x="272.19" y="-332.85" font-family="Times,serif" font-size="14.00">carshare:localEvents</text>
</g>
<!-- Rcarshare:construction1 -->
<g id="node28" class="node">
<title>Rcarshare:construction1</title>
<ellipse fill="none" stroke="blue" cx="507.98" cy="-231.05" rx="118.08" ry="18"/>
<text text-anchor="middle" x="507.98" y="-227.35" font-family="Times,serif" font-size="14.00">carshare:construction1</text>
</g>
<!-- Rcarshare:trip1&#45;&gt;Rcarshare:construction1 -->
<g id="edge28" class="edge">
<title>Rcarshare:trip1&#45;&gt;Rcarshare:construction1</title>
<path fill="none" stroke="black" d="M91.06,-350.24C107.35,-328.94 137.68,-294.05 172.69,-277.05 236.59,-246.02 314.96,-234.07 379.75,-230.08"/>
<polygon fill="black" stroke="black" points="380.24,-233.56 390.03,-229.51 379.85,-226.57 380.24,-233.56"/>
<text text-anchor="middle" x="272.19" y="-280.85" font-family="Times,serif" font-size="14.00">carshare:roadConstructions</text>
</g>
<!-- Lmorning -->
<g id="node29" class="node">
<title>Lmorning</title>
<polygon fill="none" stroke="black" points="469.48,-158.05 469.48,-194.05 546.48,-194.05 546.48,-158.05 469.48,-158.05"/>
<text text-anchor="middle" x="507.98" y="-172.35" font-family="Times,serif" font-size="14.00">morning</text>
</g>
<!-- Rcarshare:trip1&#45;&gt;Lmorning -->
<g id="edge29" class="edge">
<title>Rcarshare:trip1&#45;&gt;Lmorning</title>
<path fill="none" stroke="black" d="M83.52,-349.93C94.11,-316.49 121.67,-245.55 172.69,-213.05 261.22,-156.66 390.26,-161.22 459.26,-168.94"/>
<polygon fill="black" stroke="black" points="459.05,-172.44 469.4,-170.15 459.88,-165.49 459.05,-172.44"/>
<text text-anchor="middle" x="272.19" y="-216.85" font-family="Times,serif" font-size="14.00">carshare:timeOfDay</text>
</g>
<!-- LMonday -->
<g id="node30" class="node">
<title>LMonday</title>
<polygon fill="none" stroke="black" points="470.98,-103.05 470.98,-139.05 544.98,-139.05 544.98,-103.05 470.98,-103.05"/>
<text text-anchor="middle" x="507.98" y="-117.35" font-family="Times,serif" font-size="14.00">Monday</text>
</g>
<!-- Rcarshare:trip1&#45;&gt;LMonday -->
<g id="edge30" class="edge">
<title>Rcarshare:trip1&#45;&gt;LMonday</title>
<path fill="none" stroke="black" d="M79.91,-349.81C84.75,-306.15 103.59,-195.57 172.69,-146.05 258.63,-84.46 390.95,-97.7 460.53,-110.58"/>
<polygon fill="black" stroke="black" points="460.26,-114.09 470.74,-112.55 461.59,-107.21 460.26,-114.09"/>
<text text-anchor="middle" x="272.19" y="-149.85" font-family="Times,serif" font-size="14.00">carshare:dayOfWeek</text>
</g>
<!-- Rcarshare:construction1&#45;&gt;LB -->
<g id="edge33" class="edge">
<title>Rcarshare:construction1&#45;&gt;LB</title>
<path fill="none" stroke="black" d="M604.99,-241.37C613.08,-245.53 620.4,-250.98 626.27,-258.05 658.07,-296.4 609.88,-670.01 644.27,-706.05 677.68,-741.08 824.73,-693.29 861.27,-725.05 888.11,-748.4 854.76,-777.26 879.27,-803.05 905.25,-830.39 948.92,-838.99 979.92,-841.48"/>
<polygon fill="black" stroke="black" points="979.7,-844.97 989.9,-842.11 980.14,-837.99 979.7,-844.97"/>
<text text-anchor="middle" x="752.77" y="-728.85" font-family="Times,serif" font-size="14.00">carshare:constructionLocation</text>
</g>
<!-- Rcarshare:RoadConstruction -->
<g id="node31" class="node">
<title>Rcarshare:RoadConstruction</title>
<ellipse fill="none" stroke="blue" cx="1017.05" cy="-203.05" rx="137.58" ry="18"/>
<text text-anchor="middle" x="1017.05" y="-199.35" font-family="Times,serif" font-size="14.00">carshare:RoadConstruction</text>
</g>
<!-- Rcarshare:construction1&#45;&gt;Rcarshare:RoadConstruction -->
<g id="edge31" class="edge">
<title>Rcarshare:construction1&#45;&gt;Rcarshare:RoadConstruction</title>
<path fill="none" stroke="black" d="M611.63,-222.32C622.64,-221.5 633.68,-220.72 644.27,-220.05 720.17,-215.23 804.88,-211.25 874.24,-208.36"/>
<polygon fill="black" stroke="black" points="874.52,-211.85 884.36,-207.94 874.23,-204.85 874.52,-211.85"/>
<text text-anchor="middle" x="752.77" y="-223.85" font-family="Times,serif" font-size="14.00">rdf:type</text>
</g>
<!-- LConstruction123 -->
<g id="node32" class="node">
<title>LConstruction123</title>
<polygon fill="none" stroke="black" points="949.05,-240.05 949.05,-276.05 1085.05,-276.05 1085.05,-240.05 949.05,-240.05"/>
<text text-anchor="middle" x="1017.05" y="-254.35" font-family="Times,serif" font-size="14.00">Construction123</text>
</g>
<!-- Rcarshare:construction1&#45;&gt;LConstruction123 -->
<g id="edge32" class="edge">
<title>Rcarshare:construction1&#45;&gt;LConstruction123</title>
<path fill="none" stroke="black" d="M619.94,-236.96C716.43,-242.1 853.74,-249.41 938.75,-253.94"/>
<polygon fill="black" stroke="black" points="938.68,-257.44 948.85,-254.47 939.05,-250.45 938.68,-257.44"/>
<text text-anchor="middle" x="752.77" y="-253.85" font-family="Times,serif" font-size="14.00">carshare:constructionID</text>
</g>
</g>
</svg>

