<svg xmlns="http://www.w3.org/2000/svg" xmlns:xlink="http://www.w3.org/1999/xlink" contentStyleType="text/css" height="232px" preserveAspectRatio="none" style="width:2045px;height:232px;background:#FFFFFF;" version="1.1" viewBox="0 0 2045 232" width="2045px" zoomAndPan="magnify"><defs/><g><!--cluster System--><g id="cluster_System"><rect fill="none" height="120.01" rx="2.5" ry="2.5" style="stroke:#181818;stroke-width:1.0;" width="2032" x="7" y="106.79"/><text fill="#000000" font-family="sans-serif" font-size="14" font-weight="bold" lengthAdjust="spacing" textLength="58.3174" x="993.8413" y="121.7851">System</text></g><g id="elem_U1"><ellipse cx="121.0038" cy="176.2988" fill="#F1F1F1" rx="98.2438" ry="22.0488" style="stroke:#181818;stroke-width:0.5;"/><text fill="#000000" font-family="sans-serif" font-size="14" lengthAdjust="spacing" textLength="160.1797" x="40.914" y="179.1454">Determine Pickup Ride</text></g><g id="elem_U2"><ellipse cx="414.996" cy="176.3032" fill="#F1F1F1" rx="160.516" ry="34.5032" style="stroke:#181818;stroke-width:0.5;"/><text fill="#000000" font-family="sans-serif" font-size="14" lengthAdjust="spacing" textLength="292.3115" x="268.8403" y="179.1499">Receive Proactive Car Action Suggestions</text></g><g id="elem_U3"><ellipse cx="726.0017" cy="176.2983" fill="#F1F1F1" rx="114.9917" ry="25.3983" style="stroke:#181818;stroke-width:0.5;"/><text fill="#000000" font-family="sans-serif" font-size="14" lengthAdjust="spacing" textLength="196.6357" x="627.6838" y="179.145">Predict Optimal Car Position</text></g><g id="elem_U4"><ellipse cx="996.0031" cy="176.3046" fill="#F1F1F1" rx="120.1731" ry="26.4346" style="stroke:#181818;stroke-width:0.5;"/><text fill="#000000" font-family="sans-serif" font-size="14" lengthAdjust="spacing" textLength="207.7236" x="892.1413" y="179.1513">Request Acceptance Decision</text></g><g id="elem_U5"><ellipse cx="1301.0003" cy="176.3041" fill="#F1F1F1" rx="149.8203" ry="32.3641" style="stroke:#181818;stroke-width:0.5;"/><text fill="#000000" font-family="sans-serif" font-size="14" lengthAdjust="spacing" textLength="270.1084" x="1165.9461" y="179.1507">Adapt Proposals Based on Preferences</text></g><g id="elem_U6"><ellipse cx="1589.0025" cy="176.2985" fill="#F1F1F1" rx="103.0925" ry="23.0185" style="stroke:#181818;stroke-width:0.5;"/><text fill="#000000" font-family="sans-serif" font-size="14" lengthAdjust="spacing" textLength="170.8506" x="1503.5772" y="179.1452">Optimize Service Pricing</text></g><g id="elem_U7"><ellipse cx="1874.9982" cy="176.2976" fill="#F1F1F1" rx="148.0382" ry="32.0076" style="stroke:#181818;stroke-width:0.5;"/><text fill="#000000" font-family="sans-serif" font-size="14" lengthAdjust="spacing" textLength="266.3965" x="1741.7999" y="179.1443">Intelligent Interaction with NAO Robot</text></g><!--entity User--><g id="elem_User"><ellipse cx="995.9951" cy="14" fill="#F1F1F1" rx="8" ry="8" style="stroke:#181818;stroke-width:0.5;"/><path d="M995.9951,22 L995.9951,49 M982.9951,30 L1008.9951,30 M995.9951,49 L982.9951,64 M995.9951,49 L1008.9951,64 " fill="none" style="stroke:#181818;stroke-width:0.5;"/><text fill="#000000" font-family="sans-serif" font-size="14" lengthAdjust="spacing" textLength="31.9102" x="980.04" y="78.4951">User</text></g><!--link User to U1--><g id="link_User_U1"><path d="M979.83,44.69 C883.22,45.13 381.49,49.77 237,98.79 C201.59,110.81 171.1588,132.5024 149.0188,150.7624 " fill="none" id="User-to-U1" style="stroke:#181818;stroke-width:1.0;"/><polygon fill="#181818" points="144.39,154.58,153.8783,151.9394,148.2473,151.3987,148.7881,145.7677,144.39,154.58" style="stroke:#181818;stroke-width:1.0;"/></g><!--link User to U2--><g id="link_User_U2"><path d="M979.6,45.27 C924.3,47.72 739.97,58.57 594,98.79 C553.6,109.93 515.7707,125.669 481.9007,141.579 " fill="none" id="User-to-U2" style="stroke:#181818;stroke-width:1.0;"/><polygon fill="#181818" points="476.47,144.13,486.3167,143.924,480.9956,142.0042,482.9154,136.683,476.47,144.13" style="stroke:#181818;stroke-width:1.0;"/></g><!--link User to U3--><g id="link_User_U3"><path d="M979.94,50.06 C953.85,59.04 900.88,78.1 858,98.79 C824.96,114.74 794.1405,132.6763 768.1305,148.6763 " fill="none" id="User-to-U3" style="stroke:#181818;stroke-width:1.0;"/><polygon fill="#181818" points="763.02,151.82,772.7815,150.5114,767.2787,149.2002,768.5899,143.6974,763.02,151.82" style="stroke:#181818;stroke-width:1.0;"/></g><!--link User to U4--><g id="link_User_U4"><path d="M996,82.08 C996,103.65 996,124.21 996,143.45 " fill="none" id="User-to-U4" style="stroke:#181818;stroke-width:1.0;"/><polygon fill="#181818" points="996,149.45,1000,140.45,996,144.45,992,140.45,996,149.45" style="stroke:#181818;stroke-width:1.0;"/></g><!--link User to U5--><g id="link_User_U5"><path d="M1012.26,50.69 C1038.19,60.4 1090.41,80.28 1134,98.79 C1169.37,113.82 1203.0022,129.1143 1234.4622,143.7843 " fill="none" id="User-to-U5" style="stroke:#181818;stroke-width:1.0;"/><polygon fill="#181818" points="1239.9,146.32,1233.4337,138.8912,1235.3685,144.2069,1230.0528,146.1417,1239.9,146.32" style="stroke:#181818;stroke-width:1.0;"/></g><!--link User to U6--><g id="link_User_U6"><path d="M1012.2,45.53 C1084.84,49.66 1380.88,68.07 1468,98.79 C1503.63,111.36 1534.8404,132.3168 1558.2004,150.2468 " fill="none" id="User-to-U6" style="stroke:#181818;stroke-width:1.0;"/><polygon fill="#181818" points="1562.96,153.9,1558.2561,145.2471,1558.9937,150.8556,1553.3851,151.5932,1562.96,153.9" style="stroke:#181818;stroke-width:1.0;"/></g><!--link User to U7--><g id="link_User_U7"><path d="M1012.32,45.09 C1105.57,47.76 1571.66,62.74 1710,98.79 C1750.03,109.22 1786.9898,126.1979 1818.7298,143.0379 " fill="none" id="User-to-U7" style="stroke:#181818;stroke-width:1.0;"/><polygon fill="#181818" points="1824.03,145.85,1817.9544,138.0984,1819.6132,143.5066,1814.205,145.1653,1824.03,145.85" style="stroke:#181818;stroke-width:1.0;"/></g><!--SRC=[NP5DJiD038NtSmgh-oxexmwfq0qR6gNg0GR71Al9J1WxHO2uEvu6GSAiFetUivzjZneJd8IISubGVQWRWkExABNmwS1UBuHU26PxKaej1uA2yTntK795C_02fvkfiYGalfWkHO-QwTuds1d60CU-haaooc1UJCr5eefHuT0fjxwvMeied1s3OVc_ssjl1Qq-KcSJ8C6UaELNlvhgTvNlD6VhelX6uCv-Ax1arlcP4bc1dsJhgV6QY3ziFvGkZ7a-HWxr8DvCnGz1gMcufg2GEVbX_3VM5tZS7Q2CJr47wzPzEPUF0FFvRTxc7oz6l1pnQiJh4Mz6lFq6]--></g></svg>