<?xml version="1.0" encoding="us-ascii" standalone="no"?><svg xmlns="http://www.w3.org/2000/svg" xmlns:xlink="http://www.w3.org/1999/xlink" contentStyleType="text/css" height="428px" preserveAspectRatio="none" style="width:151px;height:428px;background:#FFFFFF;" version="1.1" viewBox="0 0 151 428" width="151px" zoomAndPan="magnify"><defs/><g><!--entity View--><g id="elem_View"><rect fill="#F1F1F1" height="46.2969" rx="2.5" ry="2.5" style="stroke:#181818;stroke-width:0.5;" width="74" x="26.5" y="130"/><rect fill="#F1F1F1" height="10" style="stroke:#181818;stroke-width:0.5;" width="15" x="80.5" y="135"/><rect fill="#F1F1F1" height="2" style="stroke:#181818;stroke-width:0.5;" width="4" x="78.5" y="137"/><rect fill="#F1F1F1" height="2" style="stroke:#181818;stroke-width:0.5;" width="4" x="78.5" y="141"/><text fill="#000000" font-family="sans-serif" font-size="14" lengthAdjust="spacing" textLength="34" x="41.5" y="162.9951">View</text></g><!--entity Controller--><g id="elem_Controller"><rect fill="#F1F1F1" height="46.2969" rx="2.5" ry="2.5" style="stroke:#181818;stroke-width:0.5;" width="113" x="7" y="253"/><rect fill="#F1F1F1" height="10" style="stroke:#181818;stroke-width:0.5;" width="15" x="100" y="258"/><rect fill="#F1F1F1" height="2" style="stroke:#181818;stroke-width:0.5;" width="4" x="98" y="260"/><rect fill="#F1F1F1" height="2" style="stroke:#181818;stroke-width:0.5;" width="4" x="98" y="264"/><text fill="#000000" font-family="sans-serif" font-size="14" lengthAdjust="spacing" textLength="73" x="22" y="285.9951">Controller</text></g><!--entity GA--><g id="elem_GA"><rect fill="#F1F1F1" height="46.2969" rx="2.5" ry="2.5" style="stroke:#181818;stroke-width:0.5;" width="61" x="33" y="376"/><rect fill="#F1F1F1" height="10" style="stroke:#181818;stroke-width:0.5;" width="15" x="74" y="381"/><rect fill="#F1F1F1" height="2" style="stroke:#181818;stroke-width:0.5;" width="4" x="72" y="383"/><rect fill="#F1F1F1" height="2" style="stroke:#181818;stroke-width:0.5;" width="4" x="72" y="387"/><text fill="#000000" font-family="sans-serif" font-size="14" lengthAdjust="spacing" textLength="21" x="48" y="408.9951">GA</text></g><!--entity User--><g id="elem_User"><rect fill="#F1F1F1" height="46.2969" rx="2.5" ry="2.5" style="stroke:#181818;stroke-width:0.5;" width="71" x="28" y="7"/><rect fill="#F1F1F1" height="10" style="stroke:#181818;stroke-width:0.5;" width="15" x="79" y="12"/><rect fill="#F1F1F1" height="2" style="stroke:#181818;stroke-width:0.5;" width="4" x="77" y="14"/><rect fill="#F1F1F1" height="2" style="stroke:#181818;stroke-width:0.5;" width="4" x="77" y="18"/><text fill="#000000" font-family="sans-serif" font-size="14" lengthAdjust="spacing" textLength="31" x="43" y="39.9951">User</text></g><!--link View to Controller--><g id="link_View_Controller"><path d="M36.2273,176.159 C27.9461,184.538 19.8843,194.786 15.5,206 C8.8047,223.124 15.9899,235.962 29.4198,248.794 " fill="none" id="View-to-Controller" style="stroke:#181818;stroke-width:1.0;"/><polygon fill="#181818" points="33.7579,252.939,30.0141,243.8295,30.1428,249.4849,24.4874,249.6136,33.7579,252.939" style="stroke:#181818;stroke-width:1.0;"/><text fill="#000000" font-family="sans-serif" font-size="13" lengthAdjust="spacing" textLength="49" x="16.5" y="219.0669">invokes</text></g><!--link Controller to View--><g id="link_Controller_View"><path d="M67.6312,252.969 C69.6968,239.437 71.5545,221.738 70.5,206 C69.8423,196.184 69.3589,191.3323 68.0193,182.1393 " fill="none" id="Controller-to-View" style="stroke:#181818;stroke-width:1.0;"/><polygon fill="#181818" points="67.1541,176.202,64.4937,185.6847,67.8751,181.1497,72.4101,184.5312,67.1541,176.202" style="stroke:#181818;stroke-width:1.0;"/><text fill="#000000" font-family="sans-serif" font-size="13" lengthAdjust="spacing" textLength="52" x="71.5" y="219.0669">updates</text></g><!--link Controller to GA--><g id="link_Controller_GA"><path d="M41.8854,299.213 C34.935,307.812 28.1042,318.187 24.5,329 C18.9738,345.5787 24.6525,358.1101 35.6855,371.1451 " fill="none" id="Controller-to-GA" style="stroke:#181818;stroke-width:1.0;"/><polygon fill="#181818" points="39.5618,375.7248,36.8004,366.271,36.3315,371.9084,30.6941,371.4394,39.5618,375.7248" style="stroke:#181818;stroke-width:1.0;"/><text fill="#000000" font-family="sans-serif" font-size="13" lengthAdjust="spacing" textLength="30" x="25.5" y="342.0669">uses</text></g><!--link GA to Controller--><g id="link_GA_Controller"><path d="M63.5,375.9474 C63.5,354.1639 63.5,327.026 63.5,305.193 " fill="none" id="GA-to-Controller" style="stroke:#181818;stroke-width:1.0;"/><polygon fill="#181818" points="63.5,299.193,59.5,308.193,63.5,304.193,67.5,308.193,63.5,299.193" style="stroke:#181818;stroke-width:1.0;"/><text fill="#000000" font-family="sans-serif" font-size="13" lengthAdjust="spacing" textLength="79" x="64.5" y="342.0669">returns data</text></g><!--link User to View--><g id="link_User_View"><path d="M63.5,53.193 C63.5,75.026 63.5,102.164 63.5,123.947 " fill="none" id="User-to-View" style="stroke:#181818;stroke-width:1.0;"/><polygon fill="#181818" points="63.5,129.947,67.5,120.947,63.5,124.947,59.5,120.947,63.5,129.947" style="stroke:#181818;stroke-width:1.0;"/><text fill="#000000" font-family="sans-serif" font-size="13" lengthAdjust="spacing" textLength="56" x="64.5" y="96.0669">interacts</text></g><!--SRC=[YmxBJ2sFvOfspiyhAShFoKaj0dBS7MEvk40I2hgwTWe8AGKhXSoyilpir68k946G6dT7e5nfCL02oCBGL9HQKbgKLwoGabYIYAuJR0rGRm5G4gYTApgq6EW6PAdCl9BKeiJaac80]--></g></svg>